<?xml version="1.0" encoding="utf-8"?>
<!-- Generator: Adobe Illustrator 18.1.1, SVG Export Plug-In . SVG Version: 6.00 Build 0)  -->
<svg version="1.1" id="Layer_1" xmlns="http://www.w3.org/2000/svg" xmlns:xlink="http://www.w3.org/1999/xlink" x="0px" y="0px"
	 viewBox="0 0 250 144.8" enable-background="new 0 0 250 144.8" xml:space="preserve">
<polygon fill="#244298" points="3.5,121.2 18.7,7.7 50.4,7.7 39,97.3 58.9,97.3 55,120.5 "/>
<g>
	<defs>
		<rect id="SVGID_1_" x="-37.3" y="-10.2" width="335.5" height="167.8"/>
	</defs>
	<clipPath id="SVGID_2_">
		<use xlink:href="#SVGID_1_"  overflow="visible"/>
	</clipPath>
	<path clip-path="url(#SVGID_2_)" fill="#244298" d="M121.7,47.3l4.9,67.4c0,0,0.9,6.6,10.1,6.6c9.3-0.1,14.5-1.6,15-7
		c0.6-5.5-9.5-104.7-9.5-104.7s-3-7.3-11-5.8c0,0,8.4,2.3,6.3,7.3C135.4,16,121.7,47.3,121.7,47.3"/>
	<path clip-path="url(#SVGID_2_)" fill="#F36D36" d="M58.9,115.7l43.4-105.4c0,0,2.4-5.5,8.2-5.8c5.9-0.3,14.5,0,14.5,0
		s4.3-0.4,1.6,6.4c-2.7,6.7-43,104.8-43,104.8s-3.2,5.9-8.7,6c-5.5,0.1-11.8,0-11.8,0S58.2,121.2,58.9,115.7"/>
	<path clip-path="url(#SVGID_2_)" fill="#274099" d="M156.1,121L172.4,6.6h28.1l10.6,51.4c0,0,7.7-52.1,7.7-51.4
		c0,0.7,27.5,0,27.5,0l-16.6,113.9h-29.2l-9.3-51.9l-7.1,52.7L156.1,121z"/>
</g>
<g>
	<defs>
		<path id="SVGID_3_" d="M235.9,77.2C235.9,77.2,236,77.2,235.9,77.2c0.1-0.2,0.1-0.3,0-0.3L235.9,77.2z"/>
	</defs>
	<clipPath id="SVGID_4_">
		<use xlink:href="#SVGID_3_"  overflow="visible"/>
	</clipPath>
	
		<linearGradient id="SVGID_5_" gradientUnits="userSpaceOnUse" x1="-752.0459" y1="526.685" x2="-751.855" y2="526.685" gradientTransform="matrix(429.7263 181.8947 181.8947 -429.7263 227522.2656 363164.0313)">
		<stop  offset="0" style="stop-color:#FFFFFF"/>
		<stop  offset="0.5623" style="stop-color:#90D8F4"/>
		<stop  offset="1" style="stop-color:#27409A"/>
	</linearGradient>
	<polygon clip-path="url(#SVGID_4_)" fill="url(#SVGID_5_)" points="236,76.8 236.2,76.9 236,77.2 235.8,77.1 	"/>
</g>
<g>
	<defs>
		<path id="SVGID_6_" d="M161.1,83.9c-0.1,0.1-0.1,0.3,0,0.4c0.1,0.2,0.2,0.3,0.2,0.5l0.2-1.6C161.4,83.4,161.3,83.7,161.1,83.9"/>
	</defs>
	<clipPath id="SVGID_7_">
		<use xlink:href="#SVGID_6_"  overflow="visible"/>
	</clipPath>
	
		<linearGradient id="SVGID_8_" gradientUnits="userSpaceOnUse" x1="-752.0459" y1="527.0065" x2="-751.855" y2="527.0065" gradientTransform="matrix(429.7263 181.8947 181.8947 -429.7263 227449.9531 363334.875)">
		<stop  offset="0" style="stop-color:#FFFFFF"/>
		<stop  offset="0.5623" style="stop-color:#90D8F4"/>
		<stop  offset="1" style="stop-color:#27409A"/>
	</linearGradient>
	<polygon clip-path="url(#SVGID_7_)" fill="url(#SVGID_8_)" points="161.1,82.9 162.1,83.4 161.5,84.9 160.4,84.5 	"/>
</g>
<g>
	<defs>
		<path id="SVGID_9_" d="M186.6,70.2c0.3,0,0.5-0.2,0.7-0.4c0.1-0.1,0-0.3-0.1-0.4c-0.1-0.2-0.1-0.3,0.1-0.4
			c0.6-0.2,1.2-0.5,1.9-0.4c-0.3,0.2-0.5,0.4-0.5,0.8c0,0.2-0.2,0.3-0.5,0.3c0.1,0.2,0.2,0.2,0.2,0.3c0.7,0.3,1.1,0.8,1.8,1.2
			c0.3,0.2,0.5,0.4,0.4,0.8c-0.1,0.4-0.4,0.4-0.8,0.4c-0.9,0-1.7-0.2-2.4-0.5c-0.6-0.3-1.2-0.1-1.8,0.3c-0.5,0.4-1.7,0-1.9-0.6
			c0-0.1,0-0.1,0-0.2c0.3-0.4,0.4-1,0.8-1.4c0.3-0.2,0.3-0.6,0.6-0.9c0.3-0.2,0.5-0.4,0.8,0c0.1,0.1,0.2,0.1,0.3,0.1
			c0.2,0,0.5,0,0.2,0.3C186.1,69.7,186.5,70.2,186.6,70.2C186.6,70.2,186.6,70.2,186.6,70.2 M194.2,67.6c0.3-0.1,0.5-0.2,0.8-0.2
			c0.1,0,0.2,0,0.2,0c0.8,0.4,1.5,0.9,1.9,1.7c0.2,0.5,0.2,0.7-0.4,0.9c-0.1,0-0.3,0.1-0.4,0.2c-0.1,0.1-0.3,0.2-0.4,0.1
			c-0.2-0.1-0.4-0.1-0.7-0.1c-0.1,0-0.3,0-0.4,0c0,0.1,0.1,0.2,0.1,0.2c0.5,0.2,0.7,0.6,0.9,0.9c0.2,0.3,0.2,0.5,0.6,0.4
			c0.1,0,0.4,0.3,0.5,0.6c0.1,0.2,0,0.3-0.2,0.3c-0.1,0-0.3,0-0.4,0c-0.1,0-0.2,0-0.2,0.1c0,0.1,0,0.2,0.1,0.2
			c0.1,0.1,0.3,0.1,0.4,0.2c0.2,0.1,0.3,0.2,0.1,0.5c-0.3,0.3-0.1,0.6-0.1,0.9c0.1,0.4-0.1,0.5-0.4,0.5c-0.7,0.2-1.4-0.1-1.9-0.5
			c-0.3-0.2-0.4-0.8-0.4-1.2c0-0.2,0-0.4-0.3-0.3c-0.1,0-0.2,0-0.2-0.2c0-0.1,0.1-0.1,0.2-0.1c0.1,0,0.2,0.1,0.3,0.1
			c0.1,0.1,0.2,0,0.3-0.1c0.1-0.1,0-0.2,0-0.3c-0.4-0.7-0.9-1.4-1.6-1.9c-0.4-0.3-0.2-0.8-0.5-1.1c0-0.1,0-0.2-0.1-0.2
			c-0.2-0.5-0.2-0.5,0.3-0.4c0.1,0,0.3,0,0.3-0.2c0.1-0.2-0.1-0.2-0.1-0.3c-0.3-0.2-0.4-0.6-0.9-0.7c0.4-0.1,0.5,0,0.7,0.1
			c0.3,0.2,0.3,0.2,0.6-0.1c0,0,0,0,0.1,0c0,0,0.1,0,0.1,0C193.7,67.8,193.9,67.7,194.2,67.6 M217.3,50.7c-0.1,0.1-0.1,0.2-0.3,0.3
			c-0.5,0.1-1,0.2-1.4,0.3c-0.2,0-0.3,0.1-0.5,0c-0.3-0.1-0.5-0.1-0.8-0.1c-0.7,0.1-1.5,0.3-2.2,0.4c-0.6,3.9-0.9,6.3-0.9,6.3
			l-1.1-5.3c-0.4,0-0.8,0-1.2,0c-0.2,0-0.4,0-0.6,0.1c-0.2,0-0.3,0.2-0.2,0.4c0.1,0.3,0.4,0.3,0.7,0.4c0.1,0,0.3,0.1,0.2,0.3
			c-0.1,0.2-0.2,0.1-0.3,0.1c-0.5-0.4-1.1-0.4-1.6-0.5c-0.1,0-0.3-0.1-0.4,0c-0.1,0.2,0.2,0.2,0.2,0.3c-0.1,0-0.2,0-0.2,0
			c-0.2,0-0.3-0.1-0.4,0.1c-0.1,0.2,0.3,0.1,0.3,0.4c-0.6,0.1-0.7,0-0.7-0.6c0-0.1,0-0.2-0.1-0.2c-0.1-0.1-0.2-0.1-0.2,0
			c0,0.3-0.2,0.3-0.4,0.4c-0.4,0.1-0.4,0.3-0.1,0.5c0.2,0.2,0.3,0.3,0.2,0.6c-0.1,0.3,0,0.5,0.3,0.5c0.2,0,0.3,0,0.5,0
			c0.4,0,0.7,0.1,1,0.4c0.2,0.2,0.2,0.2-0.1,0.4c-0.2-0.6-0.6-0.8-1.2-0.5c-0.2,0.1-0.4,0.2-0.2,0.5c0.1,0.1,0.1,0.2,0,0.3
			c-0.4,0.5-1.2,1.1-1.9,0.7c0.6,0,0.9-0.5,1.2-0.9c0.1-0.1,0.1-0.4-0.1-0.5c-0.2-0.1-0.2-0.3-0.2-0.5c-0.1-0.3,0.1-0.7-0.2-0.9
			c-0.2-0.2-0.2-0.3-0.1-0.5c0.2-0.3,0.1-0.5-0.2-0.5c-0.3,0-0.6,0-0.9,0c-0.3,0-0.5,0.1-0.6,0.4c-0.1,0.3-0.2,0.5-0.5,0.6
			c-0.1,0-0.3,0.1-0.2,0.2c0.2,0.3,0.1,0.5,0,0.8c0,0.1,0.1,0.1,0.1,0.1c0.3,0,0.4,0.2,0.6,0.3c0.1,0.1,0.3,0.2,0.2,0.3
			c-0.1,0.1-0.2,0.1-0.3,0c-1.3-0.8-2.9-0.6-4.2-1.2c-0.1,0-0.2,0-0.2,0.1c0,0.1,0.1,0.1,0.2,0.2c0.3,0.1,0.5,0.2,0.7,0.4
			c0.1,0.1,0.2,0.2,0.1,0.2c-0.2,0.1-0.4,0.4-0.7,0.1c-0.1-0.1-0.1-0.1-0.2-0.1c-0.6,0.1-1.1,0.1-1.7,0.3c-0.2,0.1-0.4,0.1-0.6-0.1
			c-0.1-0.2-0.2-0.2-0.4-0.1c-0.7,0.3-1.4,0.5-2.1,0.6c-0.2,0-0.3,0.1-0.4,0.3c-0.3,0.4-0.6,0.4-1,0.1c-0.1-0.1-0.2-0.1-0.2-0.2
			c0-0.1,0.2-0.2,0.3-0.2c0.1,0,0.3,0,0.3-0.2c0-0.1-0.1-0.2-0.3-0.2c-0.2-0.1-0.4-0.1-0.6,0c-0.1,0-0.3,0-0.4,0
			c0,0.2,0.2,0.3,0.1,0.4c-0.1,0.2-0.1,0.4,0.1,0.5c0.1,0.1,0.1,0.2,0,0.3c-0.1,0.1-0.2,0-0.3,0c-0.6-0.2-1.1,0.2-1.6,0.5
			c-0.1,0.1-0.1,0.2,0,0.3c0.2,0.3,0,0.4-0.3,0.3c-0.3-0.1-0.5-0.2-0.8-0.2c-0.2-0.1-0.4-0.1-0.5,0.1c-0.1,0.2,0.2,0.2,0.3,0.2
			c0.1,0,0.1,0.1,0.2,0.1c0.1,0,0.1,0.1,0.1,0.2c0,0-0.1,0.1-0.1,0.1c-0.4-0.1-1-0.2-1.2-0.5c-0.3-0.4-0.3-1-0.9-1.1
			c0.1-0.2,0.2-0.1,0.3-0.1c0.5,0.1,0.9,0.2,1.4,0.3c0.6,0.1,1.3,0.1,1.8-0.3c0.3-0.2,0.3-0.4,0-0.6c-0.5-0.3-1.1-0.3-1.6-0.6
			c-0.4-0.2-0.8-0.3-1.2-0.3c-0.1,0-0.2,0-0.3,0c-0.3,0-0.7,0-0.9-0.4c0,0-0.1,0-0.2,0c-0.4,0.2-0.7,0-1-0.1
			c0.1-0.2,0.4-0.1,0.3-0.3c0-0.2-0.3-0.2-0.4-0.2c-0.1,0-0.2,0-0.3,0c-0.2,0-0.4,0-0.6-0.1c-0.1-0.1-0.2,0.1-0.3,0.1
			c-0.2,0.2-0.6,0-0.8,0.3c0,0,0,0,0,0c-0.1-0.1,0.2-0.2,0.1-0.4c-0.4,0.1-0.8,0.2-1.2,0.4c-0.5,0.2-1,0.4-1.5,0.3
			c-0.2,0-1.2,0.3-1.2,0.5c0,0.4-0.3,0.2-0.4,0.2c-0.1,0-0.2,0-0.3,0c-0.2,0-0.4,0-0.4,0.2c-0.1,0.2,0.2,0.1,0.3,0.3
			c-0.2,0.5-0.8,0.6-1,1c-0.4,0.6-0.9,1.1-1.5,1.5c-0.3,0.2-0.6,0.1-0.8,0.3c-0.4,0.4-1,0.5-1.5,0.8c-0.3,0.2-0.4,0.5-0.3,0.9
			c0.1,0.2,0.1,0.4,0.1,0.6c0.2,1.1,1.2,1.1,1.7,0.6c0.1-0.1,0.3-0.2,0.5-0.3c0.3-0.2,0.6-0.1,0.7,0.2c0.1,0.3,0.3,0.6,0.5,0.9
			c0.1,0.2,0.3,0.4,0.3,0.6c0,0.2,0.1,0.3,0.3,0.4c0.2,0,0.3,0,0.4-0.2c0.1-0.2,0.3-0.3,0.5-0.3c0.3,0,0.5-0.2,0.5-0.4
			c0.1-0.2,0.2-0.4,0.2-0.7c0.1-0.3,0.2-0.5,0.5-0.6c0.3,0,0.5-0.3,0.5-0.5c0-0.2-0.2-0.3-0.4-0.4c-0.4-0.1-0.4-0.4-0.3-0.8
			c0.2-0.7,0.7-0.9,1.3-1.2c0.3-0.1,0.7-0.3,0.6-0.7c0-0.1,0.1-0.2,0.2-0.3c0.4-0.3,1.1-0.4,1.5-0.2c0.1,0.1,0.2,0.2,0.1,0.3
			c-0.3,0.2-0.5,0.6-0.9,0.7c-0.3,0.1-0.7,0.3-0.8,0.6c-0.2,0.4,0.1,0.9,0,1.4c0,0,0.1,0.1,0.1,0.1c0.3,0.2,0.7,0.3,1.1,0.3
			c0.4-0.1,0.9-0.2,1.3-0.3c0.4,0,0.7-0.2,1.1,0.1c0.1,0.1,0.2,0.2,0,0.3c-0.3,0.2-0.6,0.4-1,0.3c-0.4-0.1-0.8-0.1-1.2,0
			c-0.4,0.2-0.4,0.4-0.1,0.6c0.2,0.2,0.2,0.5,0.1,0.7c-0.1,0.2-0.3,0.1-0.5,0c-0.5-0.4-1.1-0.1-1,0.5c0,0.5,0,0.9-0.6,1.1
			c-0.2,0.1-0.4,0.2-0.6,0c-0.2-0.2-0.4-0.2-0.6-0.1c-0.2,0.1-0.5,0.2-0.7,0.3c-0.4,0.2-0.8,0.2-1.2,0c-0.2-0.1-0.4-0.1-0.7,0
			c-0.5,0.2-1-0.1-1.2-0.6c0.1,0,0.2,0.1,0.3,0.1c0.1,0,0.2,0,0.2-0.1c0,0,0-0.1,0-0.1c-0.3-0.2-0.3-0.3,0-0.5c0.1-0.1,0-0.1,0-0.2
			c-0.1-0.2-0.4-0.3-0.6-0.3c0,0-0.1,0-0.1,0c-0.5,0.1-0.6,0.5-0.4,0.9c0.2,0.2,0.2,0.5,0.2,0.8c0,0.2-0.1,0.4-0.3,0.4
			c-0.2,0-0.3,0-0.5,0.1c-0.2,0.1-0.3,0.1-0.5,0.1c-0.1,0-0.2,0.1-0.1,0.3c0.1,0.2,0,0.3-0.1,0.3c-0.5,0.3-1,0.6-1.6,0.8
			c-0.2,0.1-0.3,0.1-0.3,0.3c-0.2,0.5-0.9,0.7-1.4,0.6c-0.2-0.1-0.4-0.1-0.3,0.2c0.1,0.5-0.2,0.4-0.5,0.3c-0.2,0-0.3-0.1-0.5-0.1
			c-0.2,0-0.4,0-0.4,0.2c0,0.2,0.2,0.3,0.4,0.3c1,0.3,1.5,1.1,1.2,2.1c-0.1,0.4-0.3,0.5-0.7,0.5c-0.8,0-1.5,0-2.2-0.2
			c-0.4-0.1-0.7,0.2-0.9,0.3c-0.3,0.2,0,0.4,0,0.6c0,0.4,0.1,0.9-0.1,1.3c-0.1,0.4-0.4,0.7,0,1.1c0,0,0,0.2,0,0.3
			c0,0.4,0.2,0.5,0.4,0.4c0.4-0.1,0.6,0,0.8,0.3c0.1,0.2,0.3,0.2,0.5,0.1c0.4-0.3,0.8-0.3,1.2-0.3c0.1,0,0.3,0.1,0.4,0
			c0.3-0.5,1.2-0.7,0.9-1.6c0,0,0-0.1,0-0.1c0.3-0.4,0.5-0.9,1.1-1c0.4-0.1,0.7-0.3,0.6-0.8c-0.1-0.3,0.3-0.6,0.7-0.5
			c0.7,0.3,1.2,0,1.7-0.4c0.5-0.3,0.9-0.2,1.1,0.3c0.3,0.7,0.9,1.1,1.5,1.3c0.8,0.3,1.3,1.1,1.3,1.8c0.5-0.3,0.5-0.5,0.3-0.9
			c-0.1-0.1,0-0.3,0.1-0.4c0.1-0.1,0.3,0,0.4,0.1c0.1,0.1,0.2,0.3,0.4,0.1c0.1-0.2-0.1-0.3-0.2-0.4c-0.1-0.1-0.2-0.1-0.3-0.2
			c-0.5-0.1-0.7-0.5-1.2-0.6c-0.3-0.1-0.5-0.3-0.5-0.6c0-0.2-0.2-0.4-0.4-0.5c-0.3-0.1-0.4-0.3-0.4-0.7c0-0.2,0-0.3,0.2-0.4
			c0.2,0,0.4-0.1,0.4,0.2c0,0.1,0.1,0.2,0.2,0.1c0.3-0.1,0.3,0.1,0.4,0.2c0.2,0.4,0.5,0.6,0.9,0.8c0.3,0.1,0.6,0.3,0.9,0.5
			c0.3,0.2,0.7,0.5,0.5,1c-0.1,0.2,0.1,0.5,0.2,0.7c0.3,0.5,0.9,0.7,0.8,1.4c0,0.2,0.1,0.3,0.3,0.4c0.2,0.1,0.3,0.1,0.5-0.2
			c0.2-0.4-0.2-0.5-0.3-0.7c0.2,0.1,0.4,0.1,0.5,0.2c0.1,0.1,0.2,0.1,0.3-0.1c0.1-0.2,0-0.3-0.1-0.4c-0.1-0.1-0.2-0.1-0.2-0.1
			c-0.3-0.2-0.4-0.5-0.4-0.8c0-0.2,0.1-0.1,0.2-0.1c0.1,0,0.2,0,0.2,0c0.1-0.1,0.2-0.1,0.2-0.2c0.4-0.3,0.8-0.1,1.1,0.1
			c0.3,0.1,0,0.3,0,0.4c0,0.1,0,0.2,0.1,0.2c0.1,0.2,0.3,0.4,0.1,0.6c-0.1,0.1,0,0.1,0,0.2c0.3,0.5,0.8,0.8,1.3,1.1
			c0.2,0.1,0.5,0.1,0.6-0.1c0.2-0.4,0.5-0.2,0.7-0.1c0.4,0.4,0.8,0.3,1.2,0c0.2-0.2,0.4-0.1,0.6-0.1c0.1,0,0.2,0,0.3,0
			c0.1,0-0.1,0.3-0.1,0.5c0,0.1,0,0.2,0,0.3c0.1,0.3,0,0.6-0.1,0.9c-0.1,0.3-0.3,0.6-0.4,1c-0.1,0.7-0.8,1.1-1.4,0.7
			c-0.4-0.2-0.7-0.2-1,0.1c-0.2,0.1-0.4,0.2-0.6,0.1c-0.4-0.1-0.9-0.2-1.3-0.4c-0.6-0.2-1.2-0.3-1.6-0.7c-0.3-0.2-0.6-0.3-1,0
			c-0.3,0.2-0.6,0.4-0.5,0.9c0.1,0.2,0,0.4-0.2,0.5c-0.2,0.1-0.4,0.1-0.5,0c-0.4-0.2-0.7-0.5-1.2-0.5c-0.2,0-0.3-0.1-0.3-0.3
			c-0.2-0.5-0.7-0.7-1.1-0.6c-0.6,0.1-1-0.3-1.4-0.5c-0.2-0.2-0.3-0.3,0-0.5c0.3-0.2,0.4-0.5,0.1-0.8c-0.1-0.1-0.1-0.2,0-0.3
			c0.1-0.1,0-0.2-0.1-0.2c-0.2-0.3-0.5-0.3-0.8-0.1c-0.1,0.1-0.3,0.1-0.5,0.1c-0.4,0-0.8-0.1-1.1,0.1c-0.1,0.1-0.2,0-0.3,0
			c-0.8-0.1-1.6,0-2.3,0.4c-0.3,0.2-0.8,0.3-1,0.6c-0.1,0.1-0.2,0.1-0.3,0.1c-0.3-0.1-0.6-0.1-0.9-0.1c-0.1,0-0.1,0-0.2,0
			c-0.1,0-0.2-0.1-0.3-0.1c-0.4-0.3-0.5-0.3-0.7,0.2c-0.2,0.5-0.4,0.8-0.9,1c-0.5,0.2-1,1-0.9,1.5c0.1,0.7-0.4,1.5-1,1.7
			c-0.4,0.1-0.7,0.3-0.8,0.7c0,0.1-0.1,0.2-0.2,0.2c-0.4,0.2-0.5,0.5-0.6,0.9c0,0.2,0,0.3-0.2,0.4c-0.2,0.2-0.4,0.4-0.5,0.7
			l-0.2,1.6c0.1,0.3,0.1,0.6,0.1,0.8c0.1,0.4,0.1,0.8,0,1.1c-0.1,0.4-0.1,1-0.4,1.4c-0.1,0.1,0,0.3,0,0.4c0.1,0.3,0.2,0.5,0.1,0.8
			c-0.1,0.2,0.1,0.5,0.3,0.6c0.3,0.1,0.5,0.4,0.6,0.6c0.2,0.3,0.5,0.6,0.8,0.9c0.1,0.2,0.1,0.4,0.2,0.7c0.1,0.4,0.5,0.6,0.8,0.9
			c0.5,0.4,1,0.9,1.5,1.3c0.3,0.3,0.6,0.3,1,0.1c0.7-0.4,1.4-0.4,2.1-0.2c0.1,0,0.3,0.1,0.4,0c0.5-0.2,1-0.5,1.5-0.7
			c0.7-0.4,1.7-0.2,2.1,0.5c0.3,0.7,0.3,0.7,1.1,0.5c0.6-0.1,1.3,0.5,1.2,1c-0.1,0.7-0.2,1.4-0.4,2c-0.1,0.4-0.1,0.6,0.1,0.9
			c0.1,0.2,0.3,0.5,0.4,0.6c0.9,0.9,1.1,2.1,1.5,3.2c0,0.1,0,0.2,0,0.3c-0.2,0.4,0,0.8,0.2,1.2c0.2,0.5,0.2,0.9-0.2,1.3
			c-0.2,0.3-0.4,0.6-0.4,0.9c0,0.3-0.1,0.6-0.2,0.9c-0.2,0.6-0.2,1.2,0.1,1.7c0.4,0.8,0.6,1.6,1.1,2.4c0,0.1,0.1,0.2,0.1,0.2
			c-0.1,0.8,0.2,1.5,0.3,2.3c0,0.5,0.2,1.1,0.6,1.5c0.2,0.2,0.4,0.5,0.4,0.9c0.1,0.4,0.2,0.7,0.4,1.1c0.1,0.3,0.3,0.6,0,0.8
			c-0.1,0.1,0,0.2,0,0.3c0.3,0.9,1,1.1,1.8,0.7c0.3-0.2,0.6-0.2,0.9-0.1c0.8,0.1,1.4-0.1,1.9-0.6c0.6-0.6,1.3-1.2,1.6-2.1
			c0,0,0-0.1,0.1-0.1l4-29.8c-0.3-0.2-0.4-0.6-0.4-0.9c0-0.3,0.1-0.7-0.1-1c-0.3-0.5-0.6-1-0.8-1.5c-0.2-0.7-0.7-1.3-0.9-2
			c0-0.1-0.1-0.2,0-0.2c0.2-0.2,0.7-0.1,0.8,0.2c0.2,0.4,0.4,0.8,0.6,1.2c0.2,0.3,0.2,0.7,0.5,0.9c0.3,0.2,0.5,0.4,0.6,0.7l2-14.7
			l3.5,19.8c0.2-0.1,0.5-0.2,0.7-0.3c0.2-0.1,0.5-0.2,0.5-0.4c0.1-0.3,0.2-0.4,0.5-0.4c0.8-0.2,1.3-0.6,1.9-1.2
			c0.2-0.3,0.5-0.5,0.5-0.9c0-0.1,0.1-0.2,0.2-0.2c0.4-0.2,0.5-0.7,0.7-1c0.1-0.1,0-0.2,0-0.2c-0.2-0.2-0.4-0.6-0.7-0.7
			c-0.6-0.2-1-0.5-0.9-1.2c0-0.1,0-0.1-0.1-0.2c-0.4,0.5-0.8,1-1.6,1.1c-0.5,0.1-0.8,0-0.7-0.6c0-0.1,0-0.2,0-0.3
			c0-0.3-0.1-0.4-0.4-0.1c0,0.1-0.1,0.1-0.2,0.1c-0.1,0-0.1-0.1-0.1-0.2c0.1-0.4-0.1-0.6-0.3-0.8c-0.3-0.3-0.5-0.6-0.6-1
			c-0.1-0.3-0.2-0.5,0.1-0.7c0.3-0.1,0.6-0.2,0.8,0.1c0.3,0.5,0.4,1.1,1.1,1.3c0.1,0,0.1,0.1,0.1,0.2c0.4,0.4,1.1,0.6,1.6,0.2
			c0.3-0.2,0.4-0.1,0.5,0.2c0.1,0.2,0.1,0.5,0.4,0.5c0.7,0.1,1.4,0.3,2.1,0.3c0.2,0,0.4,0,0.5,0c0.5,0,1,0,1.5-0.1
			c0.2,0,0.3,0.1,0.4,0.2c0.2,0.4,0.5,0.8,0.9,1.1c0.2,0.1,0.3,0.3,0.6,0.3c0,0,0,0,0.1,0c0.1,0,0.2,0,0.2,0.1
			c0,0.2-0.2,0.2-0.3,0.2c-0.1,0-0.3,0-0.2,0.2c0.1,0.3,0.4,0.6,0.8,0.7c0.2,0.1,0.4-0.1,0.6-0.2c0.1-0.1,0.1-0.3,0.3-0.4
			c0.1,0.3,0.2,0.5,0.2,0.8c-0.1,1.2,0.1,2.3,0.6,3.4c0.2,0.4,0.3,0.8,0.4,1.2c0,0.3,0.1,0.5,0.3,0.8c0.2,0.2,0.2,0.5,0.3,0.8
			c0.1,0.4,0.1,0.8,0.3,1.2c0.2,0.3,0.5,0.3,0.7,0c0.1-0.1,0.2-0.2,0.3-0.4c0.2-0.3,0.6-0.6,0.6-0.9c0-0.9,0.5-1.7,0.3-2.6
			c0-0.2,0-0.4,0.1-0.5c0.5-0.3,0.9-0.8,1.3-1.2c0.3-0.3,0.6-0.5,0.8-0.8c0.1-0.3,0.3-0.4,0.6-0.5c0.3-0.1,0.5-0.3,0.5-0.6
			c0-0.5,0.3-0.5,0.7-0.6c0.4,0,0.9,0,1.2-0.3c0.1-0.1,0.1-0.3,0.3-0.2c0.2,0.1,0.2,0.2,0.2,0.4c0,0.3,0.1,0.6,0.3,0.9
			c0.2,0.3,0.5,0.6,0.7,0.9c0.3,0.5,0.4,1,0.3,1.6c0,0.1-0.1,0.3,0.1,0.3c0.1,0.1,0.3,0.2,0.4,0c0.1-0.1,0.2-0.2,0.3-0.2
			c0.5-0.4,0.7-0.3,0.9,0.3c0,0.1,0.1,0.3,0.1,0.4c0,0.7,0.3,1.3,0.3,2c0,0.5,0,1.1-0.1,1.6c-0.1,0.5,0,0.7,0.2,1.1
			c0.3,0.5,0.7,1,0.7,1.6c0,0.9,0.3,1.6,1,2.2c0.2,0.1,0.3,0.3,0.5,0.2c0.2-0.2,0.1-0.4,0-0.6c-0.2-0.3-0.3-0.7-0.2-1
			c0.2-0.9-0.4-1.4-1-1.9c-0.2-0.2-0.4-0.3-0.4-0.6c0-0.3-0.1-0.6-0.3-0.8c-0.3-0.3-0.3-0.6-0.2-0.9c0.1-0.5,0.4-1,0.4-1.6
			c0-0.1,0.1-0.2,0.2-0.2c0.1,0,0.2,0,0.2,0.1c0,0.3,0.3,0.4,0.5,0.5c0.2,0.1,0.3,0.2,0.4,0.4c0.1,0.4,0.4,0.6,0.6,0.8
			c0.3,0.2,0.5,0.4,0.3,0.8c-0.1,0.1,0,0.3,0.2,0.2c0.3-0.2,0.6-0.3,0.8-0.6c0.1-0.2,0.2-0.3,0.4-0.3c0.4-0.2,0.8-0.4,0.9-0.8
			c0.3-1.1,0.3-2.2-0.6-3c-0.4-0.4-0.6-0.9-0.9-1.3c-0.2-0.3-0.1-0.5,0.1-0.8c0.2-0.3,0.5-0.5,0.8-0.8c0.2-0.3,0.5-0.2,0.7-0.2
			c0.3,0.1,0.4,0.2,0.3,0.5c0,0.1,0,0.2,0.2,0.2c0.1,0,0.2-0.1,0.2-0.2c0-0.3,0.2-0.4,0.4-0.4c0.3-0.1,0.6-0.1,0.8-0.2
			c0.5-0.3,1-0.5,1.5-0.6c0.2,0,0.3-0.1,0.5-0.2c0.4-0.4,0.9-0.9,1.4-1.3c0.1-0.1,0.1-0.2,0.1-0.3c0-0.5,0.3-0.9,0.6-1.3
			c0.3-0.3,0.3-0.6,0.4-0.9c0.1-0.2,0-0.4-0.3-0.5c-0.1,0-0.2,0-0.2-0.1c0.6-0.5,0.6-0.7,0.1-1.4c-0.1-0.2-0.2-0.3-0.3-0.5
			c-0.1-0.3-0.2-0.6-0.5-0.7c-0.3-0.2-0.3-0.4,0-0.6c0.4-0.3,0.6-0.8,1.1-0.8c0.1,0,0.1-0.1,0.2-0.1c0-0.1,0-0.2-0.1-0.2
			c-0.4,0-0.8-0.4-1.1,0c-0.1,0.1-0.3,0.2-0.4,0c-0.1-0.4-0.5-0.5-0.7-0.7c-0.2-0.1-0.2-0.4,0-0.4c0.6,0,0.8-0.5,1.2-0.8
			c0.2-0.1,0.4-0.3,0.6-0.2c0.3,0.2,0.1,0.4,0,0.6c-0.1,0.1-0.1,0.2,0,0.3c0.1,0.1,0.2,0.1,0.3,0c0.2-0.1,0.3-0.2,0.5-0.3
			c0.4-0.2,0.7,0,0.9,0.2c0.2,0.2,0.1,0.4,0,0.6c-0.1,0.3,0,0.3,0.2,0.4c0.3,0,0.7,0.1,0.6,0.4c-0.1,0.3,0.1,0.6,0.1,0.9
			c0,0.3-0.2,0.6,0,0.8c0.2,0.2,0.5-0.2,0.8-0.2c0,0,0,0,0,0c0.3-0.2,0.5-0.4,0.5-0.8c0-0.7-0.5-1.2-0.9-1.7
			c-0.3-0.4-0.3-0.4,0.1-0.7c0.3-0.2,0.7-0.4,0.7-1c0-0.2,0.8-0.8,0.9-0.8c0.1,0,0.1,0,0.2,0c0.6,0.2,1.1,0.1,1.4-0.4
			c0-0.1,0.1-0.2,0.2-0.2l0.9-6c-0.1,0-0.2,0.1-0.3,0.1c-0.3,0.2-0.7,0.2-0.9-0.2c-0.1-0.2-0.2-0.2-0.4-0.3c-0.1,0-0.3,0-0.4-0.2
			c0-0.2,0.2-0.2,0.3-0.3c0.7-0.4,1.2-1.1,1.8-1.5c0,0,0.1-0.1,0.1-0.1l1.2-8.3c-0.6-0.1-1.2-0.3-1.9-0.3c-0.5,0-1.1-0.2-1.6,0
			c-0.2,0.1-0.3,0.1-0.2,0.4c0.1,0.3-0.1,0.2-0.2,0.2c-0.6,0-1.1-0.2-1.7,0c-0.3,0.1-0.6,0-0.9-0.1c-0.3-0.2-0.5-0.1-0.6,0.2
			c-0.1,0.2-0.2,0.3-0.4,0.3c-0.4-0.1-0.7-0.3-1-0.6c-0.2-0.2,0.1-0.2,0.1-0.4c-0.1-0.2,0-0.3-0.2-0.4c-0.2-0.1-0.4-0.2-0.6-0.2
			c-0.5,0-0.9-0.1-1.4-0.2c-0.3,0-0.7-0.2-0.7,0.3c0,0.1-0.1,0.1-0.1,0.1c-0.7,0-1.4,0.1-2-0.2c-0.5-0.3-1.1-0.3-1.6-0.2
			c-0.3,0-0.6,0.1-0.9,0c-0.4-0.1-0.9-0.2-1.3-0.2c-0.1,0-0.2,0-0.3,0.1c-0.3,0.3-0.7,0.3-1.1,0.3c-0.1,0-0.1,0-0.2,0
			c-0.1,0-0.1,0-0.1-0.1c0-0.1,0.1-0.1,0.1-0.1c0.6-0.1,1.1-0.6,1.8-0.6c0.3,0,0.5-0.2,0.7-0.3c0.2-0.1,0.2-0.4,0-0.5
			c-0.8-0.4-1.6-0.5-2.5-0.3c-0.3,0.1-0.5,0-0.7-0.2c-0.2-0.1-0.4-0.2-0.6-0.2c0,0-0.1,0,0-0.1c0.1-0.3-0.1-0.3-0.3-0.3
			c0,0-0.1,0-0.1,0c0,0-0.1,0-0.1,0C218.2,50.3,217.8,50.5,217.3,50.7"/>
	</defs>
	<clipPath id="SVGID_10_">
		<use xlink:href="#SVGID_9_"  overflow="visible"/>
	</clipPath>
	
		<linearGradient id="SVGID_11_" gradientUnits="userSpaceOnUse" x1="-752.0459" y1="526.8539" x2="-751.855" y2="526.8539" gradientTransform="matrix(429.7263 181.8947 181.8947 -429.7263 227483.3438 363255.9688)">
		<stop  offset="0" style="stop-color:#FFFFFF"/>
		<stop  offset="0.5623" style="stop-color:#90D8F4"/>
		<stop  offset="1" style="stop-color:#27409A"/>
	</linearGradient>
	<polygon clip-path="url(#SVGID_10_)" fill="url(#SVGID_11_)" points="172.9,22.1 264,60.7 227.4,147.2 136.3,108.6 	"/>
</g>
<g>
	<defs>
		<path id="SVGID_12_" d="M195,90.1C195,90.1,195,90.1,195,90.1l0.2,1.2c0.1-0.3,0.1-0.6,0.1-1c0-0.2,0-0.3-0.1-0.3
			C195.2,90.1,195.1,90.1,195,90.1"/>
	</defs>
	<clipPath id="SVGID_13_">
		<use xlink:href="#SVGID_12_"  overflow="visible"/>
	</clipPath>
	
		<linearGradient id="SVGID_14_" gradientUnits="userSpaceOnUse" x1="-752.0459" y1="526.9433" x2="-751.855" y2="526.9433" gradientTransform="matrix(429.7263 181.8947 181.8947 -429.7263 227464.1875 363301.25)">
		<stop  offset="0" style="stop-color:#FFFFFF"/>
		<stop  offset="0.5623" style="stop-color:#90D8F4"/>
		<stop  offset="1" style="stop-color:#27409A"/>
	</linearGradient>
	<polygon clip-path="url(#SVGID_13_)" fill="url(#SVGID_14_)" points="195.1,89.9 195.8,90.2 195.3,91.4 194.6,91.1 	"/>
</g>
<g>
	<defs>
		<path id="SVGID_15_" d="M231.1,107.3c-0.2,0.2-0.5,0.3-0.7,0.6c-0.2,0.3-0.3,0.7-0.5,0.7c-0.4,0.1-0.4,0.3-0.4,0.6
			c-0.4-0.3-0.6-0.2-0.7,0.2c-0.1,0.2,0,0.3-0.1,0.5c-0.5,1.1-1.6,1.1-2.5,1.5c0,0-0.1,0-0.1,0c-0.3-0.1-0.4,0.1-0.6,0.2
			c-0.2,0.2-0.4,0.3-0.6,0.5c-0.7,0.4-1,1.2-1,1.9c0,0.4,0.2,0.9-0.2,1.2c0,0,0,0.1,0,0.1c0,0.9,0.3,1.8,0.1,2.7c0,0.1,0,0.1,0,0.2
			c0.2,0.7,0,1.3-0.5,1.8c0,0,0,0.1-0.1,0.1h3.9c0,0,0,0,0.1-0.1c0.3-0.4,0.7-0.6,1.2-0.7c0.4,0,0.7-0.1,1-0.2
			c0.1-0.1,0.2-0.1,0.4-0.1l1.8-12.2c0,0-0.1,0-0.1,0C231.3,107.2,231.2,107.2,231.1,107.3"/>
	</defs>
	<clipPath id="SVGID_16_">
		<use xlink:href="#SVGID_15_"  overflow="visible"/>
	</clipPath>
	
		<linearGradient id="SVGID_17_" gradientUnits="userSpaceOnUse" x1="-752.0459" y1="527.0228" x2="-751.855" y2="527.0228" gradientTransform="matrix(429.7263 181.8947 181.8947 -429.7263 227446.3281 363343.4688)">
		<stop  offset="0" style="stop-color:#FFFFFF"/>
		<stop  offset="0.5623" style="stop-color:#90D8F4"/>
		<stop  offset="1" style="stop-color:#27409A"/>
	</linearGradient>
	<polygon clip-path="url(#SVGID_16_)" fill="url(#SVGID_17_)" points="224.5,104.2 236.3,109.2 230.3,123.4 218.5,118.4 	"/>
</g>
<g>
	<defs>
		<path id="SVGID_18_" d="M227.9,93.8c-0.2,0.2-0.3,0.4-0.4,0.7c-0.3,0.5-1,0.6-1.2,1.1c-0.1,0.3-0.4,0.4-0.7,0.5
			c-0.3,0.1-0.5,0.2-0.5,0.5c0,0.2-0.1,0.3-0.4,0.2c-0.5-0.2-0.9,0.1-0.9,0.7c0.1,0.3-0.1,0.7,0.2,1c0.2,0.2,0.2,0.4,0.2,0.6
			c0,0.3-0.1,0.7,0.3,0.7c0.1,0,0.3,0.1,0.4,0.1c0.1,0.1,0.3,0.2,0.4,0.1c0.4-0.1,0.7,0,1,0.3c0.1,0.1,0.8,0.1,0.8-0.1
			c0-0.3,0.2-0.6,0.2-0.9c0-0.3,0.1-0.5,0.3-0.7c0.3-0.2,0.4-0.5,0.4-0.8c0-0.2,0.1-0.4,0.4-0.4c0.4,0,0.3-0.2,0.1-0.4
			c-0.3-0.4-0.3-0.8-0.3-1.3c0-0.2,0.1-0.4,0.3-0.6c0.2-0.1,0.2-0.5,0.5-0.6c0.1,0-0.1-0.2-0.2-0.2c-0.2-0.2-0.5-0.3-0.6-0.6
			c0-0.1-0.1-0.2-0.2-0.2C228.1,93.6,228,93.7,227.9,93.8"/>
	</defs>
	<clipPath id="SVGID_19_">
		<use xlink:href="#SVGID_18_"  overflow="visible"/>
	</clipPath>
	
		<linearGradient id="SVGID_20_" gradientUnits="userSpaceOnUse" x1="-752.0459" y1="526.8831" x2="-751.855" y2="526.8831" gradientTransform="matrix(429.7263 181.8947 181.8947 -429.7263 227477.6094 363269.5313)">
		<stop  offset="0" style="stop-color:#FFFFFF"/>
		<stop  offset="0.5623" style="stop-color:#90D8F4"/>
		<stop  offset="1" style="stop-color:#27409A"/>
	</linearGradient>
	<polygon clip-path="url(#SVGID_19_)" fill="url(#SVGID_20_)" points="224.6,91.7 231.7,94.7 228.4,102.4 221.3,99.4 	"/>
</g>
<g>
	<defs>
		<path id="SVGID_21_" d="M217.4,94.2c-0.1,0.1-0.1,0.2,0,0.3c0.1,0.3,0.4,0.5,0.6,0.8c0.3,0.5,0.7,1,1,1.5c0.2,0.4,0.3,0.9,0.6,1.3
			c0.1,0.1,0.1,0.2,0.1,0.4c0.2,1.1,0.9,1.9,1.6,2.7c0.1,0.1,0.3,0.2,0.5,0.2c0.2,0,0.3-0.1,0.3-0.3c0-0.3,0-0.7,0.1-1
			c0.1-0.4,0-0.6-0.3-0.8c-0.4-0.3-0.3-0.8-0.7-1.1c0,0,0-0.1,0-0.2c0.2-0.4-0.1-0.7-0.3-1c-0.5-0.5-1.2-0.8-1.6-1.5
			c0,0-0.1-0.1-0.1-0.1c-0.3-0.2-0.5-0.4-0.5-0.7c0-0.2-0.1-0.3-0.3-0.3c-0.2,0-0.5-0.1-0.6-0.2c-0.1,0-0.1-0.1-0.2-0.1
			C217.5,94.2,217.4,94.2,217.4,94.2"/>
	</defs>
	<clipPath id="SVGID_22_">
		<use xlink:href="#SVGID_21_"  overflow="visible"/>
	</clipPath>
	
		<linearGradient id="SVGID_23_" gradientUnits="userSpaceOnUse" x1="-752.0459" y1="526.9167" x2="-751.855" y2="526.9167" gradientTransform="matrix(429.7263 181.8947 181.8947 -429.7263 227470.1875 363287.0625)">
		<stop  offset="0" style="stop-color:#FFFFFF"/>
		<stop  offset="0.5623" style="stop-color:#90D8F4"/>
		<stop  offset="1" style="stop-color:#27409A"/>
	</linearGradient>
	<polygon clip-path="url(#SVGID_22_)" fill="url(#SVGID_23_)" points="218,92.4 224.9,95.3 221.5,103.3 214.7,100.4 	"/>
</g>
<g>
	<defs>
		<path id="SVGID_24_" d="M166.8,62.6c0.1,0.2,0.2,0.2,0.2,0.4c0,0.3,0,0.6,0.4,0.7c0.1,0,0.1,0.1,0.1,0.2c-0.2,0.4,0.1,0.3,0.3,0.3
			c0.2,0,0.6,0.4,0.5,0.6c0,0.3-0.2,0.3-0.5,0.3c-0.1,0-0.3,0-0.2,0.2c0.2,0.3,0,0.5-0.3,0.7c0.1,0.1,0.1,0.1,0.2,0.1
			c0.4,0.1,0.3,0.2,0.1,0.4c-0.1,0.1-0.3,0.3-0.5,0.5c0.9-0.2,1.8-0.4,2.6-0.4c0.2,0,0.6,0,0.5-0.5c0-0.1,0.1-0.1,0.1-0.2
			c0.1-0.1,0.2-0.2,0.2-0.4c-0.1-0.2-0.2-0.2-0.4-0.2c-0.1,0-0.3,0-0.3-0.2c0-0.7-0.8-0.9-1-1.5c0,0-0.1-0.1-0.1-0.1
			c-0.4-0.2-0.4-0.2-0.1-0.6c0.1-0.1,0.3-0.2,0.2-0.4c-0.1-0.1-0.2-0.1-0.3-0.1c0,0-0.1,0-0.1,0c0,0-0.1,0-0.1,0
			c-0.1,0-0.2,0-0.3-0.1c-0.1-0.2,0.2-0.2,0.2-0.4c-0.1-0.1-0.2-0.1-0.3-0.1C167.5,61.8,167.3,62.4,166.8,62.6"/>
	</defs>
	<clipPath id="SVGID_25_">
		<use xlink:href="#SVGID_24_"  overflow="visible"/>
	</clipPath>
	
		<linearGradient id="SVGID_26_" gradientUnits="userSpaceOnUse" x1="-752.0459" y1="526.8217" x2="-751.855" y2="526.8217" gradientTransform="matrix(429.7263 181.8947 181.8947 -429.7263 227491.7344 363236.1875)">
		<stop  offset="0" style="stop-color:#FFFFFF"/>
		<stop  offset="0.5623" style="stop-color:#90D8F4"/>
		<stop  offset="1" style="stop-color:#27409A"/>
	</linearGradient>
	<polygon clip-path="url(#SVGID_25_)" fill="url(#SVGID_26_)" points="167.4,60.4 172.6,62.6 170.2,68.3 165,66.1 	"/>
</g>
<g>
	<defs>
		<path id="SVGID_27_" d="M235.8,76.2c-0.1,0.1-0.2,0.2-0.3,0.3c-0.1,0.1-0.3,0.1-0.3,0.3c0.1,0.2,0.3,0.2,0.5,0.1
			c0.2-0.1,0.2-0.1,0.3-0.1l0.1-0.9C236,76,235.9,76.1,235.8,76.2"/>
	</defs>
	<clipPath id="SVGID_28_">
		<use xlink:href="#SVGID_27_"  overflow="visible"/>
	</clipPath>
	
		<linearGradient id="SVGID_29_" gradientUnits="userSpaceOnUse" x1="-752.0459" y1="526.6808" x2="-751.855" y2="526.6808" gradientTransform="matrix(429.7263 181.8947 181.8947 -429.7263 227523.1875 363161.875)">
		<stop  offset="0" style="stop-color:#FFFFFF"/>
		<stop  offset="0.5623" style="stop-color:#90D8F4"/>
		<stop  offset="1" style="stop-color:#27409A"/>
	</linearGradient>
	<polygon clip-path="url(#SVGID_28_)" fill="url(#SVGID_29_)" points="235.3,75.6 236.5,76.1 236,77.3 234.8,76.8 	"/>
</g>
<g>
	<defs>
		<path id="SVGID_30_" d="M235.9,77.3l0-0.2C235.9,77.2,235.9,77.3,235.9,77.3"/>
	</defs>
	<clipPath id="SVGID_31_">
		<use xlink:href="#SVGID_30_"  overflow="visible"/>
	</clipPath>
	
		<linearGradient id="SVGID_32_" gradientUnits="userSpaceOnUse" x1="-752.0459" y1="526.6871" x2="-751.855" y2="526.6871" gradientTransform="matrix(429.7263 181.8947 181.8947 -429.7263 227521.7813 363165.1563)">
		<stop  offset="0" style="stop-color:#FFFFFF"/>
		<stop  offset="0.5623" style="stop-color:#90D8F4"/>
		<stop  offset="1" style="stop-color:#27409A"/>
	</linearGradient>
	<polygon clip-path="url(#SVGID_31_)" fill="url(#SVGID_32_)" points="235.9,77.2 236,77.2 235.9,77.3 235.9,77.3 	"/>
</g>
<g>
	<defs>
		<path id="SVGID_33_" d="M201.1,50.7c-0.5,0.3-1.1,0.3-1.7,0.3c-1.2,0-2.3,0.2-3.2,1.2c-0.1,0.1-0.2,0.2-0.4,0.2
			c-0.1,0-0.2,0.1-0.2,0.2c-0.3,0.4-0.6,0.7-1,1c-0.1,0-0.2,0.1-0.1,0.2c0,0.1,0.1,0.1,0.2,0.1c0.3,0,0.6,0.2,0.8,0.3
			c0.6,0.3,1.2,0.1,1.7,0.3c0,0,0-0.1,0-0.1c-0.2-0.1-0.3-0.2-0.5-0.3c-0.5-0.4-0.6-0.7-0.1-1.1c0.8-0.7,1.6-1.2,2.6-1.4
			c0.8-0.2,1.6-0.3,2.5-0.5c0.2,0,0.3-0.1,0.5-0.1c0.1,0,0.1-0.1,0.1-0.2c0-0.1-0.1-0.1-0.2-0.2c-0.1,0-0.2,0-0.4,0
			C201.5,50.5,201.3,50.6,201.1,50.7"/>
	</defs>
	<clipPath id="SVGID_34_">
		<use xlink:href="#SVGID_33_"  overflow="visible"/>
	</clipPath>
	
		<linearGradient id="SVGID_35_" gradientUnits="userSpaceOnUse" x1="-752.0459" y1="526.61" x2="-751.855" y2="526.61" gradientTransform="matrix(429.7263 181.8947 181.8947 -429.7263 227538.9844 363124.5313)">
		<stop  offset="0" style="stop-color:#FFFFFF"/>
		<stop  offset="0.5623" style="stop-color:#90D8F4"/>
		<stop  offset="1" style="stop-color:#27409A"/>
	</linearGradient>
	<polygon clip-path="url(#SVGID_34_)" fill="url(#SVGID_35_)" points="195.6,47.7 203.7,51.1 201.1,57.3 193,53.9 	"/>
</g>
<g>
	<defs>
		<path id="SVGID_36_" d="M177.5,49.1C177.4,49.1,177.4,49,177.5,49.1c-0.3-0.1-0.5,0-0.7,0c-0.3,0-0.5,0.1-0.8-0.1
			c-0.2,0-0.3,0-0.5,0.1c-0.1,0-0.2,0-0.2,0.2c0,0.1,0.1,0.1,0.1,0.2c0.4,0.3,0.7,0.6,1.2,0.7c0.3,0.1,0.2,0.4,0.4,0.5
			c0.2,0.1,0.5,0.2,0.7,0.3c0.2,0.1,0.4,0.1,0.5-0.1c0.2-0.4,0.6-0.6,0.9-0.9c0.1-0.2,0.5-0.3,0.6-0.1c0.2,0.3,0.4,0.6,0.9,0.6
			c0.1,0,0.1,0,0.2,0c0.2,0,0.4,0,0.5-0.2c0.1-0.2-0.3-0.3-0.5-0.4c-0.6-0.2-1.1-0.5-1.7-0.6c-0.4-0.1-0.8-0.4-1.2-0.4
			C177.8,48.8,177.6,48.9,177.5,49.1"/>
	</defs>
	<clipPath id="SVGID_37_">
		<use xlink:href="#SVGID_36_"  overflow="visible"/>
	</clipPath>
	
		<linearGradient id="SVGID_38_" gradientUnits="userSpaceOnUse" x1="-752.0459" y1="526.6624" x2="-751.855" y2="526.6624" gradientTransform="matrix(429.7263 181.8947 181.8947 -429.7263 227527.3594 363152)">
		<stop  offset="0" style="stop-color:#FFFFFF"/>
		<stop  offset="0.5623" style="stop-color:#90D8F4"/>
		<stop  offset="1" style="stop-color:#27409A"/>
	</linearGradient>
	<polygon clip-path="url(#SVGID_37_)" fill="url(#SVGID_38_)" points="176.3,46.7 182.2,49.2 180.5,53.1 174.6,50.6 	"/>
</g>
<g>
	<defs>
		<path id="SVGID_39_" d="M221.9,101.9c0,0.1-0.1,0.2,0,0.3c0.4,0.4,0.8,0.7,1.3,0.6c0.2,0,0.3,0,0.5,0.1c0.3,0.3,0.7,0.3,1.1,0.4
			c0.5,0,0.9,0.1,1.4,0.2c0.1,0,0.2,0,0.2-0.1c0-0.1,0-0.2-0.1-0.2c-0.3,0-0.4-0.3-0.7-0.4c-0.1,0-0.3,0-0.4-0.2
			c0-0.2,0.2-0.1,0.3-0.3c-0.4-0.1-0.7-0.1-1.1-0.3c-0.1,0-0.2,0-0.2,0c-0.4,0.3-0.7,0.2-1.1-0.1c-0.3-0.2-0.7-0.3-1-0.3
			c0,0,0,0,0,0C222.1,101.7,222,101.8,221.9,101.9"/>
	</defs>
	<clipPath id="SVGID_40_">
		<use xlink:href="#SVGID_39_"  overflow="visible"/>
	</clipPath>
	
		<linearGradient id="SVGID_41_" gradientUnits="userSpaceOnUse" x1="-752.0459" y1="526.9403" x2="-751.855" y2="526.9403" gradientTransform="matrix(429.7263 181.8947 181.8947 -429.7263 227464.8594 363299.6875)">
		<stop  offset="0" style="stop-color:#FFFFFF"/>
		<stop  offset="0.5623" style="stop-color:#90D8F4"/>
		<stop  offset="1" style="stop-color:#27409A"/>
	</linearGradient>
	<polygon clip-path="url(#SVGID_40_)" fill="url(#SVGID_41_)" points="222.6,100 227.2,102 225.8,105.2 221.2,103.2 	"/>
</g>
<g>
	<defs>
		<path id="SVGID_42_" d="M229,98.7c-0.2,0.4-0.2,0.8-0.5,1.2c0,0,0,0.1,0,0.2c0.4,0.4,0.3,0.8,0.2,1.3c0,0.1,0,0.2,0.1,0.3
			c0.1,0,0.2,0,0.3-0.1c0.1-0.1,0.1-0.2,0.1-0.4c0-0.4,0.1-0.8,0.1-1.2c0-0.1,0.1-0.2,0.2-0.2c0.1,0,0.2,0.1,0.2,0.2
			c-0.1,0.3,0.1,0.5,0.1,0.8c0,0.3,0.1,0.5,0.5,0.2c-0.1,0.2-0.1,0.3-0.1,0.4c0,0.1,0,0.2,0.1,0.2c0.1,0,0.2,0,0.2-0.1
			c0-0.1,0.1-0.2,0.1-0.3c0.1-0.5-0.2-0.9-0.3-1.4c-0.1-0.4-0.1-0.7,0.2-0.9c0.1-0.1,0.2-0.1,0.1-0.3c-0.1-0.1-0.2,0-0.3,0
			c-0.1,0-0.2,0.1-0.3,0.1c-0.2,0.2-0.3,0.1-0.4-0.1c-0.1-0.1-0.2-0.2-0.3-0.2C229.1,98.4,229,98.5,229,98.7"/>
	</defs>
	<clipPath id="SVGID_43_">
		<use xlink:href="#SVGID_42_"  overflow="visible"/>
	</clipPath>
	
		<linearGradient id="SVGID_44_" gradientUnits="userSpaceOnUse" x1="-752.0459" y1="526.9002" x2="-751.855" y2="526.9002" gradientTransform="matrix(429.7263 181.8947 181.8947 -429.7263 227473.875 363278.3438)">
		<stop  offset="0" style="stop-color:#FFFFFF"/>
		<stop  offset="0.5623" style="stop-color:#90D8F4"/>
		<stop  offset="1" style="stop-color:#27409A"/>
	</linearGradient>
	<polygon clip-path="url(#SVGID_43_)" fill="url(#SVGID_44_)" points="228.8,97.7 231.7,98.9 230.3,102.4 227.3,101.1 	"/>
</g>
<g>
	<defs>
		<path id="SVGID_45_" d="M213.1,48.3c-0.1,0-0.1,0.1-0.1,0.1c0,0.3-0.2,0.4-0.5,0.4c0.3,0,0.6,0.1,0.9,0c0.1,0,0.2-0.1,0.2,0.1
			c0.1,0.4,0.4,0.4,0.7,0.4c0.3,0,0.7,0.1,1,0.2c0.2,0.1,0.5,0,0.7,0c0.2,0,0.3-0.1,0.3-0.4c0-0.4-0.3-0.4-0.6-0.4
			c-0.3,0-0.5-0.1-0.6-0.4c0-0.1-0.1-0.1-0.1-0.2c-0.2-0.1-0.5-0.2-0.7-0.2C213.9,48.1,213.5,48.2,213.1,48.3"/>
	</defs>
	<clipPath id="SVGID_46_">
		<use xlink:href="#SVGID_45_"  overflow="visible"/>
	</clipPath>
	
		<linearGradient id="SVGID_47_" gradientUnits="userSpaceOnUse" x1="-752.0459" y1="526.5258" x2="-751.855" y2="526.5258" gradientTransform="matrix(429.7263 181.8947 181.8947 -429.7263 227558.0781 363079.4375)">
		<stop  offset="0" style="stop-color:#FFFFFF"/>
		<stop  offset="0.5623" style="stop-color:#90D8F4"/>
		<stop  offset="1" style="stop-color:#27409A"/>
	</linearGradient>
	<polygon clip-path="url(#SVGID_46_)" fill="url(#SVGID_47_)" points="213.1,46.7 216.9,48.3 215.8,51 212,49.4 	"/>
</g>
<g>
	<defs>
		<path id="SVGID_48_" d="M165.9,64.1c-0.1,0.3-0.3,0.3-0.5,0.3c-0.2,0-0.3,0.1-0.3,0.2c0,0.2,0,0.3,0.2,0.3c0.2,0,0.2,0.2,0.1,0.3
			c-0.1,0.1-0.2,0.2-0.3,0.3c-0.1,0.1-0.1,0.2-0.1,0.3c0.1,0.1,0.2,0.1,0.3,0.1c0,0,0.1,0,0.1,0c0.4-0.1,0.7-0.3,1.1-0.4
			c0.3-0.1,0.5-0.3,0.5-0.6c0-0.3-0.1-0.5,0.2-0.7c0.1-0.1,0-0.2-0.1-0.3c-0.1-0.1-0.3-0.2-0.6-0.2
			C166.2,63.8,165.9,63.9,165.9,64.1"/>
	</defs>
	<clipPath id="SVGID_49_">
		<use xlink:href="#SVGID_48_"  overflow="visible"/>
	</clipPath>
	
		<linearGradient id="SVGID_50_" gradientUnits="userSpaceOnUse" x1="-752.0459" y1="526.8323" x2="-751.855" y2="526.8323" gradientTransform="matrix(429.7263 181.8947 181.8947 -429.7263 227489.1875 363242.1875)">
		<stop  offset="0" style="stop-color:#FFFFFF"/>
		<stop  offset="0.5623" style="stop-color:#90D8F4"/>
		<stop  offset="1" style="stop-color:#27409A"/>
	</linearGradient>
	<polygon clip-path="url(#SVGID_49_)" fill="url(#SVGID_50_)" points="165.2,63 168.1,64.2 166.9,66.9 164.1,65.7 	"/>
</g>
<g>
	<defs>
		<path id="SVGID_51_" d="M230.2,86.8c-0.1,0.3,0,0.7-0.2,1c-0.2,0.3-0.2,0.5-0.1,0.7c0.1,0.3,0.5,0.4,0.4,0.8c0,0,0.1,0.1,0.1,0.1
			c0.5-0.1,0.9,0.1,1.2,0.6c0.1,0.1,0.2,0.1,0.2,0c0.1-0.3-0.4-0.8-0.8-0.8c-0.1,0.1-0.3,0-0.3-0.1c-0.1-0.4-0.3-0.8,0-1.1
			c0.4-0.4,0.3-0.7,0.2-1.1c-0.1-0.3-0.2-0.4-0.5-0.4c0,0,0,0,0,0C230.2,86.3,230.2,86.6,230.2,86.8"/>
	</defs>
	<clipPath id="SVGID_52_">
		<use xlink:href="#SVGID_51_"  overflow="visible"/>
	</clipPath>
	
		<linearGradient id="SVGID_53_" gradientUnits="userSpaceOnUse" x1="-752.0459" y1="526.7946" x2="-751.855" y2="526.7946" gradientTransform="matrix(429.7263 181.8947 181.8947 -429.7263 227497.5469 363222.4375)">
		<stop  offset="0" style="stop-color:#FFFFFF"/>
		<stop  offset="0.5623" style="stop-color:#90D8F4"/>
		<stop  offset="1" style="stop-color:#27409A"/>
	</linearGradient>
	<polygon clip-path="url(#SVGID_52_)" fill="url(#SVGID_53_)" points="230.1,85.6 233.2,86.9 231.6,90.8 228.5,89.4 	"/>
</g>
<g>
	<defs>
		<path id="SVGID_54_" d="M232.4,92.2c-0.2,0.2-0.4,0.4-0.6,0.6c-0.1,0.1-0.2-0.1-0.3-0.1c-0.2-0.1-0.3,0.2-0.4,0.3
			c-0.1,0-0.2,0.1-0.1,0.2c0.1,0.1,0.2,0.1,0.3,0.1c0.3-0.1,0.4,0.1,0.4,0.4c0,0.1,0,0.2,0,0.3c0,0.3,0.3,0.5,0.5,0.5
			c0.3-0.1,0.2-0.3,0.2-0.5c0-0.1,0-0.3,0.2-0.3c0.4,0,0.4-0.2,0.3-0.6c0-0.2-0.1-0.5-0.1-0.7c0-0.1-0.1-0.2-0.2-0.2c0,0,0,0,0,0
			C232.4,92,232.5,92.1,232.4,92.2"/>
	</defs>
	<clipPath id="SVGID_55_">
		<use xlink:href="#SVGID_54_"  overflow="visible"/>
	</clipPath>
	
		<linearGradient id="SVGID_56_" gradientUnits="userSpaceOnUse" x1="-752.0459" y1="526.8324" x2="-751.855" y2="526.8324" gradientTransform="matrix(429.7263 181.8947 181.8947 -429.7263 227489.0313 363242.5625)">
		<stop  offset="0" style="stop-color:#FFFFFF"/>
		<stop  offset="0.5623" style="stop-color:#90D8F4"/>
		<stop  offset="1" style="stop-color:#27409A"/>
	</linearGradient>
	<polygon clip-path="url(#SVGID_55_)" fill="url(#SVGID_56_)" points="231.2,91.3 233.7,92.3 232.6,95.1 230.1,94 	"/>
</g>
<g>
	<defs>
		<path id="SVGID_57_" d="M234.4,51.6c-0.2,0.1-0.4,0.1-0.4,0.4c0,0.2,0.2,0.3,0.4,0.3c0.2,0.1,0.4,0.2,0.5,0.1
			c0.6-0.2,1.1-0.1,1.7,0c0.1,0,0.2,0,0.3,0c0.2-0.1,0.5,0,0.6-0.3c0-0.1,0-0.1-0.1-0.1c-0.3-0.1-0.5-0.2-0.8-0.1
			c0,0-0.1,0.1-0.1,0.1c-0.1,0.1-0.2,0.1-0.2-0.1c0-0.4-0.3-0.4-0.5-0.2c-0.2,0.1-0.4,0.1-0.6,0c-0.2-0.1-0.4-0.2-0.6-0.2
			C234.5,51.6,234.5,51.6,234.4,51.6"/>
	</defs>
	<clipPath id="SVGID_58_">
		<use xlink:href="#SVGID_57_"  overflow="visible"/>
	</clipPath>
	
		<linearGradient id="SVGID_59_" gradientUnits="userSpaceOnUse" x1="-752.0459" y1="526.4778" x2="-751.855" y2="526.4778" gradientTransform="matrix(429.7263 181.8947 181.8947 -429.7263 227568.8906 363053.9063)">
		<stop  offset="0" style="stop-color:#FFFFFF"/>
		<stop  offset="0.5623" style="stop-color:#90D8F4"/>
		<stop  offset="1" style="stop-color:#27409A"/>
	</linearGradient>
	<polygon clip-path="url(#SVGID_58_)" fill="url(#SVGID_59_)" points="234.5,50.3 237.8,51.7 236.9,53.8 233.6,52.4 	"/>
</g>
<g>
	<defs>
		<path id="SVGID_60_" d="M178.9,48.6c-0.1,0-0.2,0-0.2,0.1c0,0.1,0.1,0.1,0.2,0.1c0.4,0.1,0.9,0.2,1.3,0.3c0.8,0.1,1.7,0,2.5-0.4
			c-0.2-0.2-0.3-0.2-0.5-0.2c-0.2,0-0.4,0-0.7,0c-0.4,0-0.9,0-1.3,0c-0.2,0-0.4,0-0.5,0c-0.1,0-0.3,0-0.4,0
			C179.2,48.6,179.1,48.6,178.9,48.6"/>
	</defs>
	<clipPath id="SVGID_61_">
		<use xlink:href="#SVGID_60_"  overflow="visible"/>
	</clipPath>
	
		<linearGradient id="SVGID_62_" gradientUnits="userSpaceOnUse" x1="-752.0459" y1="526.644" x2="-751.855" y2="526.644" gradientTransform="matrix(429.7263 181.8947 181.8947 -429.7263 227531.3906 363142.4688)">
		<stop  offset="0" style="stop-color:#FFFFFF"/>
		<stop  offset="0.5623" style="stop-color:#90D8F4"/>
		<stop  offset="1" style="stop-color:#27409A"/>
	</linearGradient>
	<polygon clip-path="url(#SVGID_61_)" fill="url(#SVGID_62_)" points="179.3,47.1 183,48.7 182.1,50.7 178.5,49.2 	"/>
</g>
<g>
	<defs>
		<path id="SVGID_63_" d="M209.9,91.5c-0.1,0-0.1,0.1-0.1,0.2c0,0.4-0.1,0.7-0.1,1.1c0,0.2,0,0.5,0,0.7c0,0.2,0.1,0.3,0.4,0.2
			c0.3-0.1,0.6-0.3,0.6-0.7c0-0.5-0.3-1-0.5-1.5C210.1,91.6,210.1,91.5,209.9,91.5C210,91.5,210,91.5,209.9,91.5"/>
	</defs>
	<clipPath id="SVGID_64_">
		<use xlink:href="#SVGID_63_"  overflow="visible"/>
	</clipPath>
	
		<linearGradient id="SVGID_65_" gradientUnits="userSpaceOnUse" x1="-752.0459" y1="526.908" x2="-751.855" y2="526.908" gradientTransform="matrix(429.7263 181.8947 181.8947 -429.7263 227472.1719 363282.4063)">
		<stop  offset="0" style="stop-color:#FFFFFF"/>
		<stop  offset="0.5623" style="stop-color:#90D8F4"/>
		<stop  offset="1" style="stop-color:#27409A"/>
	</linearGradient>
	<polygon clip-path="url(#SVGID_64_)" fill="url(#SVGID_65_)" points="209.8,91.2 211.5,91.9 210.5,94.2 208.8,93.5 	"/>
</g>
<g>
	<defs>
		<path id="SVGID_66_" d="M216.7,49.7c-0.1,0.1-0.1,0.1-0.1,0.2c0.1,0.1,0.2,0.1,0.3,0.1c0.4-0.1,0.8-0.2,1.1-0.1
			c0.3,0,0.6-0.1,0.8-0.1c0.1,0,0.1,0,0.2-0.1c0-0.1,0-0.1-0.1-0.1c-0.2-0.2-0.6-0.3-1-0.3C217.4,49.4,216.9,49.5,216.7,49.7"/>
	</defs>
	<clipPath id="SVGID_67_">
		<use xlink:href="#SVGID_66_"  overflow="visible"/>
	</clipPath>
	
		<linearGradient id="SVGID_68_" gradientUnits="userSpaceOnUse" x1="-752.0459" y1="526.522" x2="-751.855" y2="526.522" gradientTransform="matrix(429.7263 181.8947 181.8947 -429.7263 227558.9531 363077.375)">
		<stop  offset="0" style="stop-color:#FFFFFF"/>
		<stop  offset="0.5623" style="stop-color:#90D8F4"/>
		<stop  offset="1" style="stop-color:#27409A"/>
	</linearGradient>
	<polygon clip-path="url(#SVGID_67_)" fill="url(#SVGID_68_)" points="216.9,48.5 219.2,49.5 218.6,50.9 216.3,50 	"/>
</g>
<g>
	<defs>
		<path id="SVGID_69_" d="M234.7,77.2c-0.3,0.1-0.2,0.3,0,0.3c0.3,0.1,0.3,0.2,0.2,0.5c0,0.1,0.1,0.2,0.1,0.3c0.1,0.1,0,0.3,0.2,0.3
			c0.1,0,0.3-0.1,0.3-0.3c0.1-0.2,0.1-0.4,0.2-0.6c0.1-0.3-0.1-0.6-0.4-0.7c0,0,0,0-0.1,0C235,77,234.8,77.1,234.7,77.2"/>
	</defs>
	<clipPath id="SVGID_70_">
		<use xlink:href="#SVGID_69_"  overflow="visible"/>
	</clipPath>
	
		<linearGradient id="SVGID_71_" gradientUnits="userSpaceOnUse" x1="-752.0459" y1="526.6943" x2="-751.855" y2="526.6943" gradientTransform="matrix(429.7263 181.8947 181.8947 -429.7263 227520.1563 363169.0313)">
		<stop  offset="0" style="stop-color:#FFFFFF"/>
		<stop  offset="0.5623" style="stop-color:#90D8F4"/>
		<stop  offset="1" style="stop-color:#27409A"/>
	</linearGradient>
	<polygon clip-path="url(#SVGID_70_)" fill="url(#SVGID_71_)" points="234.6,76.5 236.3,77.3 235.5,79.1 233.8,78.4 	"/>
</g>
<g>
	<defs>
		<path id="SVGID_72_" d="M230.6,82.3c-0.4,0.1-0.7,1.2-0.5,1.6c0.1,0.1,0.2,0.3,0.3,0.1c0.2-0.4,0.3-0.9,0.5-1.3
			c0-0.2,0-0.3-0.1-0.3C230.7,82.3,230.7,82.3,230.6,82.3"/>
	</defs>
	<clipPath id="SVGID_73_">
		<use xlink:href="#SVGID_72_"  overflow="visible"/>
	</clipPath>
	
		<linearGradient id="SVGID_74_" gradientUnits="userSpaceOnUse" x1="-752.0459" y1="526.7551" x2="-751.855" y2="526.7551" gradientTransform="matrix(429.7263 181.8947 181.8947 -429.7263 227506.4531 363201.4063)">
		<stop  offset="0" style="stop-color:#FFFFFF"/>
		<stop  offset="0.5623" style="stop-color:#90D8F4"/>
		<stop  offset="1" style="stop-color:#27409A"/>
	</linearGradient>
	<polygon clip-path="url(#SVGID_73_)" fill="url(#SVGID_74_)" points="230,81.9 231.5,82.5 230.7,84.5 229.2,83.8 	"/>
</g>
<g>
	<defs>
		<path id="SVGID_75_" d="M224.3,86c0,0.3,0.2,0.4,0.5,0.3c0.3-0.2,0.5-0.5,0.6-0.8c0-0.1,0-0.2-0.1-0.2c0,0-0.1,0-0.1,0
			C224.8,85.3,224.3,85.7,224.3,86"/>
	</defs>
	<clipPath id="SVGID_76_">
		<use xlink:href="#SVGID_75_"  overflow="visible"/>
	</clipPath>
	
		<linearGradient id="SVGID_77_" gradientUnits="userSpaceOnUse" x1="-752.0459" y1="526.7979" x2="-751.855" y2="526.7979" gradientTransform="matrix(429.7263 181.8947 181.8947 -429.7263 227496.8438 363224.0938)">
		<stop  offset="0" style="stop-color:#FFFFFF"/>
		<stop  offset="0.5623" style="stop-color:#90D8F4"/>
		<stop  offset="1" style="stop-color:#27409A"/>
	</linearGradient>
	<polygon clip-path="url(#SVGID_76_)" fill="url(#SVGID_77_)" points="224.4,84.9 225.8,85.5 225.2,86.9 223.8,86.3 	"/>
</g>
<g>
	<defs>
		<path id="SVGID_78_" d="M229.5,97.5c-0.1,0.1,0.1,0.2,0.2,0.2c0.4-0.1,0.9,0,1.2,0.2c0.2,0,0.4-0.1,0.6-0.2
			c0.1-0.1,0.1-0.2-0.1-0.2c-0.5,0.1-1,0-1.4-0.2c0,0-0.1,0-0.1,0C229.7,97.2,229.6,97.4,229.5,97.5"/>
	</defs>
	<clipPath id="SVGID_79_">
		<use xlink:href="#SVGID_78_"  overflow="visible"/>
	</clipPath>
	
		<linearGradient id="SVGID_80_" gradientUnits="userSpaceOnUse" x1="-752.0459" y1="526.8759" x2="-751.855" y2="526.8759" gradientTransform="matrix(429.7263 181.8947 181.8947 -429.7263 227479.3594 363265.4063)">
		<stop  offset="0" style="stop-color:#FFFFFF"/>
		<stop  offset="0.5623" style="stop-color:#90D8F4"/>
		<stop  offset="1" style="stop-color:#27409A"/>
	</linearGradient>
	<polygon clip-path="url(#SVGID_79_)" fill="url(#SVGID_80_)" points="229.8,96.4 231.9,97.3 231.3,98.7 229.2,97.8 	"/>
</g>
<g>
	<defs>
		<path id="SVGID_81_" d="M177,74.1c-0.2,0.1-0.5,0-0.7,0c-0.1,0-0.3,0-0.3,0.1c-0.1,0.2,0.1,0.2,0.2,0.2c0.1,0.1,0.3,0.1,0.4,0.2
			c0.5,0.3,0.5,0.3,0.6-0.3c0-0.2,0-0.3-0.1-0.3C177.2,74.1,177.1,74.1,177,74.1"/>
	</defs>
	<clipPath id="SVGID_82_">
		<use xlink:href="#SVGID_81_"  overflow="visible"/>
	</clipPath>
	
		<linearGradient id="SVGID_83_" gradientUnits="userSpaceOnUse" x1="-752.0459" y1="526.8716" x2="-751.855" y2="526.8716" gradientTransform="matrix(429.7263 181.8947 181.8947 -429.7263 227480.2031 363263.4063)">
		<stop  offset="0" style="stop-color:#FFFFFF"/>
		<stop  offset="0.5623" style="stop-color:#90D8F4"/>
		<stop  offset="1" style="stop-color:#27409A"/>
	</linearGradient>
	<polygon clip-path="url(#SVGID_82_)" fill="url(#SVGID_83_)" points="176.2,73.6 177.7,74.2 177.1,75.5 175.7,74.8 	"/>
</g>
<g>
	<defs>
		<path id="SVGID_84_" d="M230.8,90.7c0,0.2-0.1,0.4,0.1,0.5c0.2,0.2,0.5,0.3,0.1,0.6c-0.1,0.1,0,0.2,0.1,0.3
			c0.1,0.1,0.1,0.1,0.2,0.1c0.1,0,0.1-0.2,0.1-0.3c0-0.1,0-0.2,0.1-0.3c0.3-0.3,0.1-0.4-0.1-0.5c-0.2-0.1,0-0.5-0.3-0.5c0,0,0,0,0,0
			C230.9,90.6,230.8,90.6,230.8,90.7"/>
	</defs>
	<clipPath id="SVGID_85_">
		<use xlink:href="#SVGID_84_"  overflow="visible"/>
	</clipPath>
	
		<linearGradient id="SVGID_86_" gradientUnits="userSpaceOnUse" x1="-752.0459" y1="526.822" x2="-751.855" y2="526.822" gradientTransform="matrix(429.7263 181.8947 181.8947 -429.7263 227491.4688 363236.7813)">
		<stop  offset="0" style="stop-color:#FFFFFF"/>
		<stop  offset="0.5623" style="stop-color:#90D8F4"/>
		<stop  offset="1" style="stop-color:#27409A"/>
	</linearGradient>
	<polygon clip-path="url(#SVGID_85_)" fill="url(#SVGID_86_)" points="230.9,90.2 232.3,90.8 231.6,92.5 230.1,91.9 	"/>
</g>
<g>
	<defs>
		<path id="SVGID_87_" d="M107.8,83C99.9,90.3,88,93,88,93v3c0,0,6.1,2.9,15,0.4c8.9-2.5,25.4-1.9,25.4-1.9c-2-3.2-2.1-5.9,0.7-12.1
			c2.8-6.2,1.9-11.2,1.9-11.2c-0.7-0.1-1.4-0.1-2.1-0.1C120.2,71.1,115.1,76.3,107.8,83"/>
	</defs>
	<clipPath id="SVGID_88_">
		<use xlink:href="#SVGID_87_"  overflow="visible"/>
	</clipPath>
	
		<linearGradient id="SVGID_89_" gradientUnits="userSpaceOnUse" x1="-751.1873" y1="527.2555" x2="-750.9964" y2="527.2555" gradientTransform="matrix(226.2619 0 0 -226.2619 170053.0781 119382.8125)">
		<stop  offset="0" style="stop-color:#FFF200"/>
		<stop  offset="0.607" style="stop-color:#F7941E"/>
		<stop  offset="1" style="stop-color:#F26522"/>
	</linearGradient>
	<rect x="88" y="71.1" clip-path="url(#SVGID_88_)" fill="url(#SVGID_89_)" width="44" height="27.8"/>
</g>
<g>
	<defs>
		<path id="SVGID_90_" d="M93.5,85.6c-0.1-0.1-0.1-0.2-0.1-0.2c0-0.1,0-0.2,0-0.3c0,0,0-0.1,0.1-0.1c0.1,0,0.1,0,0.1,0.1
			c0.1,0.2,0.1,0.3,0.1,0.5c0,0.1-0.1,0.1-0.1,0.1C93.6,85.7,93.6,85.6,93.5,85.6 M94,84.8c-0.1-0.1-0.1-0.2-0.1-0.3
			c0-0.1,0-0.2,0-0.3c0.1-0.1,0.2-0.1,0.2,0c0.1,0.1,0.2,0.4,0.1,0.6c0,0-0.1,0.1-0.1,0.1C94.1,84.9,94,84.9,94,84.8 M94.4,84
			c-0.1-0.1-0.1-0.2-0.1-0.3c0-0.1,0-0.2,0.1-0.3c0.1-0.1,0.2-0.1,0.3,0c0.1,0.1,0.2,0.4,0.1,0.6c0,0.1-0.1,0.1-0.2,0.1
			C94.5,84.1,94.5,84.1,94.4,84 M95,83.3c-0.1-0.1-0.1-0.2-0.1-0.3c0-0.1,0-0.2,0.1-0.3c0.1-0.1,0.2-0.1,0.3,0
			c0.2,0.1,0.2,0.4,0.1,0.6c0,0.1-0.1,0.1-0.2,0.1C95.1,83.3,95,83.3,95,83.3 M95.7,82.4c-0.2-0.1-0.2-0.4-0.1-0.6
			c0.1-0.1,0.2-0.1,0.4,0c0.1,0.1,0.2,0.2,0.2,0.3c0,0.1,0,0.2,0,0.3c-0.1,0.1-0.1,0.2-0.2,0.2C95.8,82.5,95.7,82.5,95.7,82.4
			 M96.5,81.5c-0.1-0.1-0.1-0.2-0.1-0.3c0-0.1,0-0.2,0.1-0.3c0.1-0.2,0.3-0.2,0.5-0.1c0.2,0.1,0.2,0.4,0.1,0.6
			c-0.1,0.1-0.2,0.1-0.3,0.1C96.6,81.7,96.6,81.6,96.5,81.5 M97.4,80.5C97.4,80.5,97.4,80.5,97.4,80.5c0-0.2,0.1-0.4,0.3-0.5
			c0.2,0,0.4,0.1,0.5,0.3c0,0,0,0,0,0c0.1,0.2-0.1,0.5-0.3,0.5c0,0,0,0-0.1,0C97.6,80.9,97.4,80.8,97.4,80.5 M98.7,79.8
			C98.7,79.8,98.7,79.8,98.7,79.8c0-0.2,0-0.3,0-0.4c0.1-0.1,0.2-0.2,0.4-0.2c0.2,0,0.4,0.1,0.4,0.3c0.1,0.2-0.1,0.5-0.3,0.6
			c0,0-0.1,0-0.1,0C99,80.1,98.8,80,98.7,79.8 M96.9,76.6c-0.2,0.1-0.3,0.1-0.4,0.2c-0.3,0.1-0.4,0.3-0.3,0.6
			c0.1,0.9,0.2,1.7,0.4,2.6c0,0.1,0,0.2-0.1,0.2c-0.4,0.3-0.7,0.6-1,0.9c-0.1,0.1-0.1,0.1-0.2,0.2c0,0,0-0.1,0-0.1
			c0.2-0.5,0.6-0.9,1-1.3c0.1-0.1,0.1-0.1,0.1-0.2c0-0.3-0.1-0.6-0.1-0.9c0-0.2-0.2-0.4-0.4-0.4c-0.5-0.1-1-0.1-1.5,0.2
			c-0.2,0.1-0.3,0.3-0.3,0.5c0.1,1,0.3,2,0.4,2.9c0,0.1,0,0.3-0.1,0.4c-0.8,1.1-1.2,2.4-1.4,3.7c0,0.1,0,0.1,0,0.2
			c0.1,0.3,0.3,0.7,0.4,1c0,0,0,0.1,0.1,0.1c0,0,0,0,0.1-0.1c0,0,0,0,0,0c0.3-0.6,0.6-1.2,1.1-1.7c0,0,0.1-0.1,0.1-0.1c0,0,0,0,0,0
			c0,0,0,0.1-0.1,0.1c-0.7,0.9-1.2,1.9-1.5,2.9c0,0.1,0,0.1,0,0.2c0.1,0.3,0.2,0.5,0.3,0.8c0,0,0,0.1,0.1,0.1l0.2,0.5
			c8.2-3,13.3-7.1,15.9-10c-0.6-0.4-1.2-0.6-1.8-1c-0.1,0-0.2-0.1-0.3-0.1c-0.6,0-1.2-0.1-1.8-0.1c-1.1,0-2.1,0.1-3.1,0.4
			c-0.2,0-0.4,0.1-0.6,0.1c1-0.5,2.1-0.8,3.3-0.6c0-0.1-0.1-0.1-0.1-0.1c-0.3-0.2-0.6-0.4-0.9-0.6c-0.2-0.1-0.3-0.1-0.5-0.2
			c-1.1-0.1-2.1-0.1-3.2,0.2c-1.1,0.2-2.1,0.7-3.1,1.2c0,0-0.1,0.1-0.1,0c0,0,0.1-0.1,0.1-0.1c0.3-0.4,0.7-0.7,1.2-0.9
			c0.1,0,0.1-0.1,0.1-0.2c-0.1-0.4-0.1-0.8-0.2-1.2c0-0.3-0.2-0.4-0.5-0.5c-0.2,0-0.3,0-0.5-0.1C97.3,76.5,97.1,76.6,96.9,76.6"/>
	</defs>
	<clipPath id="SVGID_91_">
		<use xlink:href="#SVGID_90_"  overflow="visible"/>
	</clipPath>
	
		<linearGradient id="SVGID_92_" gradientUnits="userSpaceOnUse" x1="-750.1219" y1="527.6279" x2="-749.9309" y2="527.6279" gradientTransform="matrix(86.9618 0 0 -86.9618 65324.7891 45966.7695)">
		<stop  offset="0" style="stop-color:#FFF200"/>
		<stop  offset="0.607" style="stop-color:#F7941E"/>
		<stop  offset="1" style="stop-color:#F26522"/>
	</linearGradient>
	<rect x="92.8" y="76.5" clip-path="url(#SVGID_91_)" fill="url(#SVGID_92_)" width="16.6" height="13.6"/>
</g>
<g>
	<defs>
		<path id="SVGID_93_" d="M120.9,95.7c-3.5,0.7-8.2,1.6-13.2,2.2c-8,1-16.7,1-22.8-2.6c0,0,9.1,8.2,25.7,4.3
			c17.2-4.1,26.3,1.3,26.3,1.3s-14.1-3.4-24.9,0.1C97.1,105.7,88,99.1,88,99.1s6.9,9.2,24.4,3.7c10.6-3.3,27.5,0,27.5,0
			s-4.8-7.5-14.9-7.5C123.7,95.3,122.3,95.4,120.9,95.7"/>
	</defs>
	<clipPath id="SVGID_94_">
		<use xlink:href="#SVGID_93_"  overflow="visible"/>
	</clipPath>
	
		<linearGradient id="SVGID_95_" gradientUnits="userSpaceOnUse" x1="-751.3157" y1="527.4277" x2="-751.1249" y2="527.4277" gradientTransform="matrix(288 0 0 -288 216463.8281 152000.9219)">
		<stop  offset="0" style="stop-color:#FFF200"/>
		<stop  offset="0.607" style="stop-color:#F7941E"/>
		<stop  offset="1" style="stop-color:#F26522"/>
	</linearGradient>
	<rect x="84.9" y="95.3" clip-path="url(#SVGID_94_)" fill="url(#SVGID_95_)" width="55" height="12.9"/>
</g>
<g>
	<defs>
		<path id="SVGID_96_" d="M135.6,41.7c-1.2,0.5-2.5,1-3.7,1.4c-4.9,1.9-9.8,3.8-14.8,5.7c-3.1,1.2-6.1,2.4-9.2,3.6
			c-0.1,0-0.2,0.1-0.2,0c-1.5-0.3-3.1-0.6-4.6-0.9c-1.1-0.2-2.1-0.4-3.2-0.6c-0.4-0.1-0.8-0.1-1.2-0.3C97.9,50.4,97,50,96,50
			c-0.6,0-1.2,0-1.7,0c-0.4,0.1-0.7,0.2-1.1,0.4c-0.5,0.3-1.1,0.5-1.6,0.6c-0.4,0.1-0.9,0.2-1.3,0.4c-0.6,0.2-1,0.5-1.2,1.2v0.5
			c0.1,0.6,0.6,1.1,1.1,1.5c0.9,0.7,1.9,1.1,3,1.5c1.5,0.6,3,1,4.6,1.4c1.8,0.5,3.7,0.8,5.6,1.1c0.6,0.1,1.1,0.2,1.7,0.2
			c0.1,0,0.1,0.1,0.1,0.1c0.3,0.7,0.6,1.3,0.9,2c0.8,1.7,1.5,3.4,2.3,5.1c0.6,1.3,1.2,2.7,1.9,4c0.3,0.6,0.8,1,1.4,1
			c0.4,0,0.8,0.1,1.2,0.1c0,0,0.1,0,0.1,0h0.3c0-0.1,0-0.1,0-0.2c0-2.4,0-4.9,0-7.3c0-0.1,0-0.2,0.1-0.3c0.5-0.4,1-0.8,1.4-1.3
			c0.5-0.5,1-0.9,1.5-1.4c0,0,0.1-0.1,0.2-0.1c0.2,0,0.4,0,0.6,0.1c0.7,0.1,1.4,0.1,2,0.2c0.8,0,1.7,0.1,2.5,0.1c1.7,0,3.4,0,5.1,0
			c0.3,0,0.5,0,0.8,0c0.2,0,0.5,0,0.7,0c0.5,0,1-0.1,1.5-0.1c0.1,0,0.2,0,0.2,0.2c0.2,0.7,0.3,1.4,0.5,2.2c0,0.2,0.1,0.3,0.3,0.4
			c0.2,0.1,0.5,0.2,0.8,0.2c0.2,0,0.4-0.1,0.6-0.3c0.8-1,1.6-2.1,2.3-3.1c0.1-0.1,0.2-0.2,0.3-0.2c0.1,0,0.3,0,0.4,0
			c0.3,0,0.6-0.1,0.9-0.2c0.1-0.1,0.2-0.1,0.2-0.3c0-0.3-0.1-0.7-0.4-0.9c-0.1-0.1-0.1-0.1,0-0.2c0.4-0.3,0.7-0.7,1.1-1
			c0.7-0.7,1.5-1.4,2.2-2.1c0.7-0.6,1.3-1.2,2-1.8c0.1-0.1,0.1-0.3,0-0.4c-0.1-0.1-0.2-0.2-0.4-0.2c-0.6-0.2-1.1-0.2-1.7,0.1
			c-1.5,0.7-3,1.4-4.4,2.1c-0.3,0.1-0.6,0.3-0.8,0.4c0-0.1,0-0.2,0-0.3c0-0.5,0.1-1,0.1-1.5c0-0.4,0.1-0.7,0.1-1.1
			c0-0.3,0.1-0.7,0.1-1c0-0.1,0-0.2-0.2-0.2c-0.3,0-0.5-0.1-0.8-0.1c-0.2,0-0.4-0.1-0.6,0c-0.5,0.2-1,0.5-1.4,0.9
			c-0.6,0.6-1.1,1.2-1.7,1.8c-0.7,0.7-1.3,1.4-2,2.1c-0.1,0.1-0.1,0.1-0.2,0.1c-0.2,0-0.5-0.1-0.7-0.1c-1.6-0.3-3.1-0.6-4.7-0.9
			c-0.3-0.1-0.6-0.1-0.9-0.2c0,0,0.1-0.1,0.1-0.1c0.9-0.9,1.7-1.8,2.6-2.7c0.2-0.2,0.4-0.4,0.6-0.5c0.3-0.2,0.6-0.4,1-0.6
			c2.7-1.7,5.5-3.4,8.2-5.2c1.5-0.9,3-1.9,4.5-2.8c0.1-0.1,0.1-0.1,0-0.2c-0.3-0.2-0.6-0.5-0.9-0.7c-0.2-0.2-0.5-0.3-0.8-0.4
			c-0.1,0-0.3,0-0.4,0C136,41.6,135.8,41.7,135.6,41.7"/>
	</defs>
	<clipPath id="SVGID_97_">
		<use xlink:href="#SVGID_96_"  overflow="visible"/>
	</clipPath>
	
		<linearGradient id="SVGID_98_" gradientUnits="userSpaceOnUse" x1="-751.335" y1="527.4562" x2="-751.1441" y2="527.4562" gradientTransform="matrix(-104.5895 186.4421 186.4421 104.5895 -176792.1875 84945.0703)">
		<stop  offset="0" style="stop-color:#FFFFFF"/>
		<stop  offset="0.607" style="stop-color:#00BFED"/>
		<stop  offset="1" style="stop-color:#244298"/>
	</linearGradient>
	<polygon clip-path="url(#SVGID_97_)" fill="url(#SVGID_98_)" points="154.1,48.7 128.9,93.6 76.5,64.1 101.6,19.3 	"/>
</g>
<text transform="matrix(1 0 0 1 1.459 135.8594)"><tspan x="0" y="0" font-family="'Montserrat-Thin'" font-size="13.5538" letter-spacing="5">IMPO</tspan><tspan x="50.7" y="0" font-family="'Montserrat-Thin'" font-size="13.5538" letter-spacing="4">R</tspan><tspan x="62.9" y="0" font-family="'Montserrat-Thin'" font-size="13.5538">T</tspan></text>
<text transform="matrix(1 0 0 1 117.48 135.8594)"><tspan x="0" y="0" font-family="'Montserrat-Thin'" font-size="13.5538" letter-spacing="5">E</tspan><tspan x="11.9" y="0" font-family="'Montserrat-Thin'" font-size="13.5538" letter-spacing="5">X</tspan><tspan x="24.8" y="0" font-family="'Montserrat-Thin'" font-size="13.5538" letter-spacing="5">PO</tspan><tspan x="52.1" y="0" font-family="'Montserrat-Thin'" font-size="13.5538" letter-spacing="5">R</tspan><tspan x="64.7" y="0" font-family="'Montserrat-Thin'" font-size="13.5538">T</tspan></text>
<text transform="matrix(1 0 0 1 207.583 135.8594)"><tspan x="0" y="0" font-family="'Montserrat-Thin'" font-size="13.5538">S</tspan><tspan x="7.2" y="0" font-family="'Montserrat-Thin'" font-size="13.5538">.A</tspan><tspan x="19.7" y="0" font-family="'Montserrat-Thin'" font-size="13.5538">.</tspan></text>
<g>
	<defs>
		<rect id="SVGID_99_" x="-37.3" y="-10.2" width="335.5" height="167.8"/>
	</defs>
	<clipPath id="SVGID_100_">
		<use xlink:href="#SVGID_99_"  overflow="visible"/>
	</clipPath>
	<rect x="97.6" y="131.8" clip-path="url(#SVGID_100_)" width="4.8" height="1.4"/>
</g>
<g>
	<defs>
		<path id="SVGID_101_" d="M21.3,39.3c-0.3,0.1-0.6,0.4-0.4,0.8c0.1,0.2,0,0.3-0.1,0.5c-0.1,0.1-0.3,0.2-0.5,0.3
			C20,41,20,41.2,20,41.5c0,0.2,0.1,0.3,0.4,0.3c0.2,0,0.4-0.2,0.5,0.2c0.1,0.3,0,0.6-0.3,0.6c-0.3,0.1-0.5,0.2-0.7,0.4
			c0-0.3-0.4-0.5,0.1-0.7c0.2-0.1,0.1-0.3-0.1-0.4c-0.5-0.3-0.8-0.1-1.1,0.3c0,0.1,0.3,0.1,0.2,0.2c-0.2,0.2-0.3,0.5-0.6,0.4
			c-0.3-0.1-0.6,0-0.9,0.1c-0.2,0.1-0.4,0-0.6-0.1c-0.4-0.1-0.8-0.1-1.1-0.5c0,0-0.1,0-0.2,0c-0.3,0-0.6,0.1-0.9,0.1
			c-0.1,0-0.3,0-0.2,0.3c0.1,0.2,0.2,0.4,0,0.7c-0.1-0.3-0.3-0.5-0.5-0.5l-3.4,25.8c0.1,0.1,0.2,0.3,0.3,0.4
			c0.3,0.4,0.5,0.8,0.3,1.3c-0.1,0.3,0,0.6,0.2,0.7c0.6,0.6,1.4,0.9,2.2,1.3c0.3,0.2,0.7,0.3,1.1,0.5c0.4,0.2,0.8,0.4,1.2,0.2
			c0.5-0.3,0.7-0.2,1.1,0.2c0.2,0.2,0.3,0.4,0.5,0.6c0.1,0.2,0.3,0.3,0.5,0.3c0.6,0,1,0.5,1.7,0.5c0.1,0,0.2,0.1,0.2,0.2
			c0.1,0.3,0.3,0.4,0.5,0.6c0.3,0.2,0.4,0.5,0.4,0.9c0,0.1,0,0.2,0,0.2c0.5,0.2,0.9,0.7,1.3,1c0.3,0.2,0.7,0.3,0.9,0.5
			c0.1,0.1,0.2,0.2,0.4,0.1c0.1-0.1,0.1-0.2,0.1-0.3c-0.1-0.3,0.2-0.4,0.4-0.5c0.2-0.1,0.3,0.1,0.4,0.3c0.1,0.1,0.1,0.3,0.2,0.4
			c0.4,0.4,0.5,0.9,0.5,1.5c0,0.3,0,0.5,0.1,0.8c0.1,0.2,0,0.5-0.2,0.6c-0.3,0.2-0.4,0.4-0.5,0.7c0,0.1-0.1,0.2-0.2,0.3
			c-0.6,0.4-0.5,1.1-0.6,1.7c-0.1,0.3,0,0.5,0.3,0.7c0.2,0.2,0.2,0.3,0,0.4c-0.4,0.3-0.4,0.7-0.2,1.1c0.1,0.4,0.3,0.6,0.6,0.9
			c0.1,0.1,0.2,0.3,0.3,0.4c0.5,0.6,0.6,1.3,1,2c0.3,0.6,0.7,1.1,0.9,1.7c0.3,0.9,0.9,1.4,1.6,1.7c1,0.5,1.7,1.2,1.9,2.4
			c0.1,0.7,0.1,1.5,0.1,2.2c0,0.9,0.2,1.8,0.1,2.7c-0.1,0.4,0.1,0.8,0.1,1.3c0,0.3,0,0.6,0.1,0.9c0.3,0.8,0.2,1.5,0.1,2.3
			c-0.1,0.8-0.5,1.7,0,2.5c0.1,0.1,0,0.3,0,0.4c-0.1,0.7,0.1,1.4,0.1,2.1c0,0.1,0,0.2,0.2,0.2c0.2,0,0.2-0.1,0.2-0.3
			c0-0.2,0-0.4-0.1-0.5c0-0.1,0-0.2,0.1-0.2c0.1,0,0.1,0.1,0.2,0.1c0.1,0.4,0,0.8,0.1,1.1c0,0.1,0,0.1-0.1,0.1
			c-0.4,0-0.4,0.3-0.3,0.5c0.1,0.4,0,0.8-0.1,1.1c-0.1,0.2,0,0.3,0.2,0.2c0.2,0,0.3,0,0.4,0.1c0.1,0.2,0.1,0.3-0.1,0.4
			c-0.3,0.2-0.3,0.5-0.2,0.9c0.2,0.5,0.5,1,0.6,1.6c0.1,0.6,0.7,0.8,0.9,1.3c0.2,0.6,0.9,0.7,1.4,1c0.6,0.2,1.2,0.4,1.7-0.1
			c0.1-0.1,0.4,0,0.5-0.2c-0.3-0.1-0.6-0.2-0.8-0.4c-0.4-0.3-0.6-0.8-1.1-1c-0.1,0-0.1-0.1,0-0.2c0.4-0.2,0.1-0.3,0-0.4
			c-0.3-0.4-0.3-0.7,0.1-1c0.1-0.1,0.1-0.2,0.1-0.3c0-0.3,0.1-0.6,0.3-0.8c0.4-0.5,0.4-0.6-0.2-0.9c-0.3-0.1-0.5-0.3-0.5-0.7
			c0-0.3,0.1-0.5,0.5-0.6c0.2-0.1,0.2-0.2,0.2-0.3c0-0.4,0.1-0.8,0.1-1.2c0-0.3-0.2-0.4-0.3-0.7c0-0.1-0.1-0.2,0-0.3
			c0.1-0.1,0.2,0,0.3,0c0.5,0.2,0.8-0.1,0.8-0.6c0-0.6,0.1-0.7,0.5-0.8c0.3-0.1,0.6-0.1,0.9-0.3c0.5-0.3,0.8-1,0.5-1.4
			c-0.2-0.3-0.2-0.6-0.1-0.8c0.1-0.2,0.4-0.2,0.7-0.1c0.3,0.1,0.6-0.1,0.7-0.4c0.3-0.5,0.6-1,0.6-1.6c0-0.2,0.1-0.6,0.3-0.7
			c0.4-0.1,0.4-0.3,0.4-0.6c0.1-0.2,0.1-0.3,0.3-0.5c0.3-0.3,0.4-0.7,0.2-1.2c-0.1-0.5,0-1.1,0.3-1.5H39l1.8-14.2
			c-0.3-0.2-0.7-0.2-1-0.3c-0.3-0.1-0.4,0.2-0.6,0.3c0.1-0.4,0.1-0.6-0.3-0.6c-0.1,0-0.1-0.1-0.2-0.1c-0.1,0-0.3-0.3-0.2,0.1
			c0,0.1-0.1,0-0.2,0c-0.1,0-0.2-0.1-0.1-0.2c0-0.1,0.1-0.2,0.2-0.3c0.2-0.2,0.3-0.4,0-0.6c-0.2-0.2-0.4-0.5-0.4-0.7
			c-0.1-0.4-0.2-0.7-0.5-0.9c-0.6-0.5-1.2-0.9-2-0.7c-0.2,0.1-0.5,0-0.6-0.2c-0.1-0.1-0.3-0.2-0.4-0.3c-0.3-0.5-0.7-0.9-1.2-1.1
			c0,0,0,0,0,0c-0.1-0.4-0.4-0.6-0.8-0.7c-0.1,0-0.2-0.1-0.2-0.2c-0.2-0.4-0.5-0.3-0.8-0.1c-0.1,0-0.2,0.2-0.3,0.2
			c-0.5,0-1-0.3-1.6-0.2c-0.1-0.4-0.5-0.5-0.7-0.7c-0.2-0.1-0.3-0.4-0.4,0.1c0,0.2-0.4,0.4-0.6,0.3c-0.3-0.1-0.1-0.3,0.1-0.5
			c0.1-0.1,0.1-0.2,0-0.2c-0.1-0.1-0.2,0-0.3,0.1c-0.4,0.4-0.9,0.6-1.4,0.7c-0.2,0.1-0.4,0.2-0.4,0.5c0,0.3-0.2,0.6-0.4,0.9
			c-0.2,0.2-0.3,0.2-0.4,0c-0.4-0.5-0.9-0.6-1.4-0.2c-0.1,0.1-0.3,0.2-0.5,0.2c-0.5-0.1-1.2-1.1-1.2-1.6c0-0.5,0-0.9,0.2-1.4
			c0.1-0.5,0.1-0.8-0.3-1c-0.2-0.2-0.5-0.2-0.7-0.2c-0.3,0.1-0.6,0.1-0.9,0.1c-0.1,0-0.2,0-0.3,0c-0.3,0-0.3-0.1-0.2-0.4
			c0.3-0.5,0.1-1.1,0.5-1.6c0.2-0.3,0.1-0.7,0.3-1c0.1-0.2,0.1-0.3-0.2-0.3c-0.4-0.1-0.8,0-1.2,0.2c-0.2,0.1-0.4,0.2-0.4,0.4
			c0,0.4-0.2,0.7-0.5,1c-0.1,0.1-0.1,0.2-0.2,0.1c-0.3-0.1-0.6,0-0.8,0.1c-0.6,0.2-1.1-0.1-1.3-0.6c-0.1-0.1-0.1-0.3-0.2-0.4
			c-0.8-0.9-0.4-1.9-0.4-2.9c0-0.1,0-0.1,0.1-0.2c0.2-0.2,0.2-0.4,0.2-0.7c-0.1-0.6,0.2-1.2,0.8-1.3c0.1,0,0.2-0.1,0.3-0.2
			c0.4-0.3,1.3-0.6,1.7-0.3c0.3,0.2,0.5,0.2,0.7,0.2c0.1,0,0.2,0,0.4,0c0-0.2-0.2-0.4-0.3-0.5c0.3-0.2,0.7-0.2,1-0.2
			c0.2,0,0.4,0,0.7,0c0.2,0,0.3,0.1,0.4,0.2c0.1,0.1,0.2,0.2,0.3,0.1c0.6-0.1,1,0.2,1,0.8c0,0.6,0.2,1.1,0.6,1.6
			c0.1,0.1,0.2,0.3,0.4,0.2c0.2,0,0.2-0.2,0.3-0.4c0.3-0.7-0.1-1.3-0.3-1.9c-0.3-0.8-0.3-1.6,0.6-2.1c0.2-0.1,0.3-0.2,0.4-0.4
			c0.3-0.4,0.7-0.5,1.1-0.8c0.4-0.2,0.7-0.8,0.6-1.2c0-0.1-0.1-0.3-0.1-0.4c0-0.1-0.2-0.5,0.3-0.3c0.1,0,0.1-0.1,0.2-0.1
			c0.3-0.2,0-0.6,0.2-0.6c0.3-0.1,0.4-0.3,0.5-0.5c0.1-0.1,0.1-0.2,0.2-0.3c0.5-0.2,0.9-0.6,1.6-0.5c0.1,0,0.2,0,0.2-0.1
			c0-0.1,0-0.2,0-0.2c-0.3-0.5-0.2-0.8,0.3-1.1c0.3-0.2,0.6-0.3,1-0.4c0.4-0.2,0.7-0.6,1.2-0.6c0,0,0,0,0.1,0c0.1,0,0.1,0,0.2,0.1
			c0.1,0.1-0.1,0.1-0.1,0.2c-0.1,0.1-0.3,0.2-0.4,0.3c-0.2,0.1-0.3,0.3-0.1,0.5c0.2,0.2,0.3,0.1,0.5,0c0.2-0.1,0.3-0.4,0.5-0.4
			c0.6-0.1,1.2-0.4,1.8-0.7c0.1-0.1,0.2-0.1,0.2-0.2c0-0.1-0.1-0.3-0.2-0.4c-0.1-0.1-0.2,0.1-0.2,0.2c-0.1,0.1-0.1,0.1-0.2,0.2
			c-0.4,0.4-1.4,0.2-1.5-0.4c-0.1-0.3-0.1-0.6-0.4-0.7c0.1,0,0.1-0.1,0.1-0.1c0.3-0.1,0.7-0.1,0.6-0.4c-0.1-0.4-0.5-0.3-0.8-0.2
			c0,0-0.1,0-0.1,0c-0.5,0.1-1,0.4-1.5,0.6c0.2-0.4,1.5-1.3,1.8-1.3c0,0,0,0,0,0c0.6,0,1.1,0,1.7,0.1c0.7,0.1,1.3,0,1.8-0.5
			c0.1-0.1,0.3-0.2,0.5-0.2c0.1,0,0.2,0,0.3,0.1c0.1,0.1,0,0.2-0.1,0.3c-0.3,0.6-0.8,1-1,1.6c-0.1,0.1-0.1,0.3,0.1,0.2
			c0.3-0.1,0.7,0,1,0c0.1,0,0.2,0,0.4,0c0.4,0,0.8,0,1.1,0.4c0.1,0.2,0.3,0.1,0.3-0.1c0.1-0.2,0.1-0.3-0.1-0.4
			c-0.2,0-0.2-0.1-0.1-0.3c0.2-0.5-0.1-0.8-0.6-0.8c-0.1,0-0.2,0-0.3-0.1c-0.1-0.2-0.3-0.2-0.4-0.2c-0.2-0.4,0.8-0.4,0.1-0.9
			c0.6-0.5,0.5-0.9-0.1-1.3c-0.1-0.1-0.4-0.1-0.3-0.3c0.1-0.3-0.1-0.2-0.2-0.2c-0.5-0.2-1.1-0.3-1.2-0.9c-0.2-0.8-0.8-1.4-1.2-2.2
			c-0.1-0.2-0.2-0.2-0.4,0c-0.1,0.2-0.2,0.4-0.4,0.5c-0.3,0.3-0.6,0.6-1,0.5c-0.6-0.2-0.8-0.5-0.7-1.2c0.1-0.3,0-0.3-0.3-0.3
			c-0.3,0-0.4-0.1-0.6-0.3c-0.2-0.3-0.5-0.5-0.8-0.4c-0.6,0.1-1.2,0-1.7,0c-0.2,0-0.3,0-0.3,0.2c0,0.3-0.1,0.6,0,0.9
			c0.1,0.4,0,0.7-0.4,0.9c-0.2,0.1-0.2,0.3,0,0.4c0.3,0.1,0.4,0.3,0.5,0.6c0,0.5-0.1,0.9-0.5,1.1c-0.2,0.1-0.5,0.3-0.7,0.3
			c-0.2,0-0.3,0.1-0.2,0.3c0.2,0.3,0.1,0.6,0.1,1c0.1,0.4-0.2,0.6-0.5,0.7C25,52.4,25,52.1,24.9,52c-0.1-0.1-0.1-0.1-0.2-0.2
			c-0.2-0.3-0.5-0.5-0.3-1c0.2-0.6-0.1-0.9-0.6-0.8c-0.6,0-1.2-0.3-1.6-0.6c-0.5-0.4-1.1-0.5-1.7-0.5c-0.3,0-0.4,0-0.4-0.3
			c0-0.3-0.1-0.6-0.5-0.6c-0.2,0-0.3-0.2-0.3-0.4c0-0.2,0.1-0.5,0.2-0.7c0.5-0.6,1-1.1,1.7-1.3c0.1,0,0.3-0.1,0.3-0.2
			c0.1-0.4,0.5-0.5,0.7-0.5c0.9,0.1,1.1-0.9,1.7-1.2c0,0,0-0.1,0-0.1c0-0.4,0.2-0.2,0.4-0.2c0.3,0.1,0.4,0.3,0.7,0.4
			c-0.2-0.3-0.1-0.4,0.1-0.4c0.3-0.1,0.5-0.2,0.8-0.3c0.2-0.1,0.4-0.3,0.2-0.6c-0.1-0.1-0.1-0.2,0-0.4c0.3-0.3,0.2-0.5-0.2-0.6
			c-0.1,0-0.3,0-0.4-0.2c0.3,0.1,0.6,0.1,0.9,0c0.3,0,0.6-0.1,0.9,0.1c0.1,0.1,0.3,0,0.3-0.1c0.1-0.3,0.3-0.2,0.4-0.1
			c0.6,0.4,1.2,0.7,1.8,1c0.5,0.3,0.5,0.7,0,1c-0.1,0.1-0.3,0.1-0.4,0.2c-0.1,0-0.2,0.1-0.2,0.2c0.1,0.3-0.1,0.3-0.3,0.3
			c-0.3,0.1-0.7,0.2-1,0c-0.3-0.1-0.4,0.2-0.6,0.3c-0.1,0-0.1,0.1,0,0.2c0.2,0.1,0.4,0.2,0.6,0.2c0.1,0,0.2-0.1,0.3-0.1
			c0.5-0.1,0.9-0.1,1.3,0.2c0.4,0.3,0.8,1,1.5,0.8c0,0,0.1,0,0.1,0c0.3,0.2,0.7,0.2,1.1,0.3c0.1,0,0.3,0.1,0.3-0.1
			c0.1-0.1-0.1-0.2-0.2-0.3c-0.2-0.2-0.6-0.3-0.7-0.6c0.5,0.2,1,0.3,1.6,0.6c0-0.2,0-0.4,0.2-0.5c0.2-0.1,0.1-0.2,0-0.4
			c-0.2-0.5-0.7-0.5-1-0.8c-0.1-0.1-0.4-0.1-0.2-0.3c0.1-0.2,0.3-0.3,0.5-0.2c0.2,0.1,0.4,0.2,0.5,0.4c0.2,0.2,0.5,0.4,0.7,0.2
			c0.3-0.3,0.7-0.4,0.9-0.7c0.1-0.1,0.2-0.1,0.2-0.2c0-0.1-0.1-0.1-0.2-0.2c-0.8-0.2-1.5-0.7-2.3-0.8c-0.1,0-0.2-0.1-0.2-0.2
			c0-0.1,0.1-0.2,0.2-0.2c0.1,0,0.2,0.1,0.2,0c0-0.1-0.3-0.1-0.2-0.2c0.2-0.3,0-0.3-0.2-0.3c-0.1,0-0.2,0.1-0.2,0
			c0-0.3-0.2-0.2-0.3-0.3c-0.3-0.1-0.7,0-0.7-0.2c-0.1-0.4-0.4-0.3-0.6-0.3c-0.6,0-1-0.4-1.3-0.7c-0.3-0.3-0.6-0.4-1-0.4
			c-0.1,0-0.1,0-0.2,0c-0.1,0-0.1,0-0.2,0c-0.2,0-0.4-0.1-0.5,0.1c0,0.2,0.2,0.3,0.5,0.4c0.2,0,0.3,0,0.5,0c0.2,0,0.2,0,0.4,0.1
			c-0.4,0.2-1,0.2-1.4,0.3c0.1-0.5-0.1-0.8-0.6-0.8c-0.4,0-0.8,0.1-1.1,0.2c-0.4,0.1-0.5,0.6-0.3,0.9c0,0.1,0.1,0.1,0,0.2
			c-0.1,0.1-0.1,0-0.2,0c-0.4-0.3-0.4-0.8-0.1-1.1c0.1-0.1,0.3-0.1,0.3-0.3c-0.8,0-1.5,0.2-2.1,0.8c-0.3,0.4-0.2,0.6,0.2,0.7
			c0,0,0.1,0,0.1,0c0.1,0,0.2,0,0.2,0.1c-0.1,0.1-0.2,0.1-0.2,0.1c-0.1,0-0.2,0-0.3,0.1c0.6,0.4,1.2,0.3,1.9,0.4
			c-0.1,0.1-0.3,0.1-0.4,0.4c0,0.4-0.2,0.7-0.7,0.7c-0.1,0-0.1,0.1-0.1,0.1c0,0.2-0.1,0.4-0.3,0.3c-0.2-0.1-0.4-0.3-0.2-0.5
			c0.1-0.1,0.1-0.2,0-0.3C23.4,42,23.2,42,23.1,42c-0.3,0-0.4,0.2-0.6,0.4c-0.1-0.1-0.1-0.2-0.1-0.2c0.1-0.4-0.1-0.5-0.4-0.4
			c-0.1,0-0.1,0-0.2,0c-0.1-0.1,0-0.2,0.1-0.2c0.1-0.1,0.2-0.1,0.1-0.2c-0.2-0.2-0.2-0.5-0.4-0.6c-0.4-0.2-0.2-0.4,0-0.5
			c0.1-0.1,0.3-0.2,0.5-0.2c0.4,0,0.6-0.3,0.9-0.5c0.1-0.1,0.1-0.2,0-0.2c-0.3-0.1-0.6-0.1-0.9-0.1C21.8,39.1,21.5,39.2,21.3,39.3"
			/>
	</defs>
	<clipPath id="SVGID_102_">
		<use xlink:href="#SVGID_101_"  overflow="visible"/>
	</clipPath>
	
		<linearGradient id="SVGID_103_" gradientUnits="userSpaceOnUse" x1="-748.7667" y1="527.2055" x2="-748.5758" y2="527.2055" gradientTransform="matrix(158.3584 0 0 -158.3584 118584.0781 83565.625)">
		<stop  offset="0" style="stop-color:#FFFFFF"/>
		<stop  offset="0.607" style="stop-color:#00BFED"/>
		<stop  offset="1" style="stop-color:#244298"/>
	</linearGradient>
	<rect x="10.6" y="39.1" clip-path="url(#SVGID_102_)" fill="url(#SVGID_103_)" width="30.2" height="78.2"/>
</g>
<g>
	<defs>
		<path id="SVGID_104_" d="M42.7,33.9c0.2,0.2,0.6,0.1,0.9,0.4c-0.4,0-0.8-0.1-1-0.2c-0.4-0.2-0.8-0.1-1.2-0.2c-0.1,0-0.3,0-0.3,0.2
			c0,0.2-0.1,0.2-0.2,0.2c-0.3-0.1-0.6-0.4-1,0c0,0-0.1,0-0.1-0.1c-0.2-0.1-0.4-0.1-0.7-0.1c-0.4,0-0.7,0.1-1.1,0.1
			c-0.4,0.1-0.7,0.2-1.1,0.1c-0.1,0-0.2,0.1-0.3,0.2c-0.1,0.2-0.3,0.3-0.5,0.3c-0.7-0.1-1.3,0.3-1.9,0.4c-0.1,0-0.1,0.1-0.1,0.1
			c0.1,0.1,0.2,0.1,0.4,0.1c0.1,0,0.1,0,0.2,0c0.1,0,0.3,0,0.3,0.2c0,0.2-0.1,0.2-0.2,0.3C34.7,36,34.5,36,34.3,36
			c-0.8-0.1-1.6,0.3-2.4,0.4c-0.1,0-0.3,0-0.3,0.2c0,0.2,0.2,0.2,0.3,0.2c0.4,0.1,0.8,0.2,1.2,0.2c-0.3,0.2-0.6,0.1-0.9,0.3
			c0.2,0.1,0.3,0.1,0.5,0.1c0.1,0,0.2,0,0.2,0.1c0,0.5,0.4,0.3,0.6,0.3c0.5,0,1.1,0,1.6-0.1c0.5-0.1,1,0,1.5,0.1
			c0.5,0.1,1,0.4,1.4,0.8c0.4,0.4,0.5,1,0.4,1.5c-0.1,0.3,0.2,0.4,0.3,0.3c0.4-0.2,0.8-0.2,1.1,0.1c0,0,0,0,0,0
			c0.2,0,0.3,0.1,0.3,0.3c0,0.2-0.2,0.1-0.4,0.1c-0.3,0-0.5-0.2-0.9,0c0.4,0.2,0.7,0.3,1,0.3c0.3,0,0.4,0.2,0.3,0.4
			c0,0.2-0.1,0.5-0.5,0.4c-0.3-0.1-0.5,0.1-0.7,0.3c-0.3,0.4-0.4,0.9-0.2,1.1c0.3,0.4,0.4,0.8,0.6,1.2c0.2,0.5,0.6,0.9,0.9,1.3
			c0.2,0.3,0.4,0.6,0.8,0.5c0.4-0.1,0.7,0.1,1,0.3c0.6,0.4,1,0.3,1.3-0.4c0.3-0.5,0.4-1.1,1-1.5c0.3-0.1,0.3-0.5,0.4-0.7
			c0.1-0.3,0.3-0.4,0.6-0.6c0.2-0.1,0.4-0.1,0.6-0.1l1.3-10.5C45.6,33.3,43.4,33.5,42.7,33.9"/>
	</defs>
	<clipPath id="SVGID_105_">
		<use xlink:href="#SVGID_104_"  overflow="visible"/>
	</clipPath>
	
		<linearGradient id="SVGID_106_" gradientUnits="userSpaceOnUse" x1="-746.8169" y1="525.4255" x2="-746.6259" y2="525.4255" gradientTransform="matrix(81.6093 0 0 -81.6093 60978.8047 42919.8359)">
		<stop  offset="0" style="stop-color:#FFFFFF"/>
		<stop  offset="0.607" style="stop-color:#00BFED"/>
		<stop  offset="1" style="stop-color:#244298"/>
	</linearGradient>
	<rect x="31.6" y="33.1" clip-path="url(#SVGID_105_)" fill="url(#SVGID_106_)" width="15.6" height="14.1"/>
</g>
<g>
	<defs>
		<path id="SVGID_107_" d="M32.7,33.7c-0.6,0-1.2,0.1-1.8,0.1c-0.1,0-0.2,0-0.3,0.1c0,0.2-0.1,0.1-0.2,0.1c-0.4-0.2-0.8-0.1-1.2-0.1
			c-0.6,0.1-1.1,0.3-1.7,0.4c-0.4,0-0.8,0-1.2,0.1c-0.7,0.1-1.4,0.2-2,0.3c0.5,0.5,1.1,0.7,1.8,0.7c0.9-0.1,1.9,0,2.8-0.3
			c0.1,0,0.2-0.1,0.3,0.1c-0.1,0.1-0.3,0.2-0.4,0.2c-0.3,0-0.6,0.1-0.8,0.1c-0.4,0.1-0.8,0.2-1.2,0.1c-0.1,0-0.2,0-0.4,0
			c-0.1,0-0.2,0-0.2,0c-0.3,0-0.3,0.3-0.5,0.3c-0.1,0-0.2-0.1-0.3-0.1c-0.1-0.1-0.2-0.2-0.3-0.2c-0.5,0-1-0.1-1.4-0.4
			C23.7,35,23.6,35,23.5,35c-0.5,0.2-1.1,0.3-1.5,0.6c-0.2,0.2-0.2,0.2,0,0.4c0.1,0.1,0.3,0.1,0.4,0.1c0.1,0,0.2,0,0.3,0.1
			c0.2,0.5,0.6,0.5,0.9,0.5c0.1,0,0.2,0,0.3,0c0.5,0,1,0,1.5-0.3c-0.2,0.4,0.1,0.4,0.3,0.4c0.3,0,0.5,0,0.4,0.3
			c-0.2-0.1-0.4-0.2-0.6-0.2c-0.2,0-0.5,0-0.4,0.2c0,0.3-0.2,0.3-0.3,0.3c-0.1,0-0.2,0.1-0.4,0.1c-0.1,0-0.1,0.1-0.1,0.1
			c0,0.1,0.1,0.1,0.2,0.1c0.6,0,1.2,0,1.8,0c0.5,0,1-0.1,1.4,0c0.6,0.1,1-0.1,1.5-0.2c-0.1-0.2-0.5-0.2-0.3-0.3
			c0.2-0.2,0.5-0.4,0.9-0.4c0.4,0.1,0.6-0.2,0.9-0.4c0.1,0,0.1-0.1,0.1-0.2c0-0.1-0.1-0.1-0.2-0.1c-0.1,0-0.2,0.1-0.2-0.1
			c0.1-0.1,0.2-0.2,0.4-0.2c0.8-0.1,1.6-0.2,2.3-0.5c1.1-0.4,2.3-1,3.5-1.1c0.1,0,0.1,0,0.2,0c0.1,0,0.2,0,0.2-0.2
			c0-0.1-0.1-0.1-0.2-0.1c-0.5-0.2-1-0.2-1.5-0.2c-0.2,0-0.5,0-0.7,0c-0.5,0-1-0.1-1.4-0.1C32.8,33.7,32.8,33.7,32.7,33.7"/>
	</defs>
	<clipPath id="SVGID_108_">
		<use xlink:href="#SVGID_107_"  overflow="visible"/>
	</clipPath>
	
		<linearGradient id="SVGID_109_" gradientUnits="userSpaceOnUse" x1="-746.079" y1="525.1274" x2="-745.8881" y2="525.1274" gradientTransform="matrix(78.4647 0 0 -78.4647 58562.6055 41239.7461)">
		<stop  offset="0" style="stop-color:#FFFFFF"/>
		<stop  offset="0.607" style="stop-color:#00BFED"/>
		<stop  offset="1" style="stop-color:#244298"/>
	</linearGradient>
	<rect x="21.7" y="33.7" clip-path="url(#SVGID_108_)" fill="url(#SVGID_109_)" width="15.1" height="4.1"/>
</g>
<g>
	<defs>
		<path id="SVGID_110_" d="M16.3,39.6c-0.1,0.1-0.2,0.1-0.3,0.1c-0.3,0-0.5,0.1-0.4,0.4c0,0.1,0.1,0.3,0,0.4
			c-0.2,0.1-0.2-0.2-0.2-0.3c-0.1-0.3-0.4-0.4-0.6-0.2c-0.1,0.1-0.1,0.1-0.2,0.1l-0.3,2.2c0.1,0,0.3-0.1,0.4-0.1
			c0.5-0.1,0.9-0.4,1.4-0.1c0.4,0.2,0.9,0.2,1.3,0.1c0.2,0,0.4-0.1,0.2-0.4c-0.1-0.2,0-0.2,0.1-0.2c0.1,0,0.2,0,0.3,0
			c0.1,0,0.2,0,0.3-0.1c0-0.1-0.1-0.2-0.2-0.2c-0.2-0.1-0.4-0.2-0.7-0.2c-0.2,0-0.4-0.1-0.4-0.2c0.1-0.5-0.4-1,0.4-1.4
			c-0.2-0.1-0.4-0.2-0.5-0.2C16.5,39.4,16.4,39.5,16.3,39.6"/>
	</defs>
	<clipPath id="SVGID_111_">
		<use xlink:href="#SVGID_110_"  overflow="visible"/>
	</clipPath>
	
		<linearGradient id="SVGID_112_" gradientUnits="userSpaceOnUse" x1="-727.9368" y1="520.9391" x2="-727.7459" y2="520.9391" gradientTransform="matrix(20.6597 0 0 -20.6597 15053.04 10803.3164)">
		<stop  offset="0" style="stop-color:#FFFFFF"/>
		<stop  offset="0.607" style="stop-color:#00BFED"/>
		<stop  offset="1" style="stop-color:#244298"/>
	</linearGradient>
	<rect x="14.1" y="39.4" clip-path="url(#SVGID_111_)" fill="url(#SVGID_112_)" width="4" height="2.9"/>
</g>
<g>
	<defs>
		<path id="SVGID_113_" d="M21.3,37.5c-0.1,0-0.2,0-0.2,0.1c0,0.1,0.1,0.1,0.2,0.2c0.3,0.2,0.6,0.1,0.9,0.1c0.4,0,0.6,0.2,0.5,0.5
			c-0.2,0.4,0,0.4,0.3,0.4c0.8,0,1.7,0.1,2.5,0.1c0.4,0,0.9-0.2,1.3-0.1c0.4,0,0.8,0.1,1.1-0.2c0.1-0.1,0.1-0.1,0.1-0.2
			c0-0.1-0.1-0.1-0.2-0.1c-0.3-0.1-0.7-0.1-1-0.1c-0.4,0-0.8,0.1-1.2,0.1c-0.2,0-0.3,0-0.5,0c-0.4,0-0.8,0.1-1.1-0.2
			c-0.4-0.4-0.9-0.4-1.4-0.5c0,0,0,0-0.1,0c-0.3-0.1-0.6-0.1-0.9-0.1C21.5,37.5,21.4,37.5,21.3,37.5"/>
	</defs>
	<clipPath id="SVGID_114_">
		<use xlink:href="#SVGID_113_"  overflow="visible"/>
	</clipPath>
	
		<linearGradient id="SVGID_115_" gradientUnits="userSpaceOnUse" x1="-739.0706" y1="523.2174" x2="-738.8797" y2="523.2174" gradientTransform="matrix(36.1492 0 0 -36.1492 26737.9434 18952.084)">
		<stop  offset="0" style="stop-color:#FFFFFF"/>
		<stop  offset="0.607" style="stop-color:#00BFED"/>
		<stop  offset="1" style="stop-color:#244298"/>
	</linearGradient>
	<rect x="21.1" y="37.5" clip-path="url(#SVGID_114_)" fill="url(#SVGID_115_)" width="6.9" height="1.4"/>
</g>
<g>
	<defs>
		<path id="SVGID_116_" d="M15.7,37.8c-0.1,0-0.3,0.1-0.2,0.3c0.2,0.3,0,0.3-0.3,0.3c-0.2,0-0.4-0.1-0.6-0.1l-0.1,0.7c0,0,0,0,0.1,0
			c0.4-0.1,0.9-0.2,1.3-0.2c0.4,0,0.8,0,1.1-0.3c0.1-0.1,0.2-0.1,0.2-0.2c0-0.1-0.2-0.1-0.3-0.1c-0.3,0.1-0.6,0.1-0.8-0.3
			c0-0.1-0.1-0.1-0.2-0.1C15.8,37.7,15.8,37.8,15.7,37.8"/>
	</defs>
	<clipPath id="SVGID_117_">
		<use xlink:href="#SVGID_116_"  overflow="visible"/>
	</clipPath>
	
		<linearGradient id="SVGID_118_" gradientUnits="userSpaceOnUse" x1="-716.1992" y1="517.1704" x2="-716.0084" y2="517.1704" gradientTransform="matrix(13.8328 0 0 -13.8328 9921.5957 7192.2607)">
		<stop  offset="0" style="stop-color:#FFFFFF"/>
		<stop  offset="0.607" style="stop-color:#00BFED"/>
		<stop  offset="1" style="stop-color:#244298"/>
	</linearGradient>
	<rect x="14.5" y="37.7" clip-path="url(#SVGID_117_)" fill="url(#SVGID_118_)" width="2.7" height="1.2"/>
</g>
<g>
	<defs>
		<path id="SVGID_119_" d="M22.5,68.8c-0.4,0-0.7,0.2-1,0.5c0.1,0,0.2,0,0.2,0c0.4-0.2,0.8-0.6,1.3-0.1c0,0,0,0,0,0c0,0,0,0,0,0
			c0.5,0.2,1.1,0.2,1.4,0.8c0,0.1,0.1,0.1,0.2,0.1c0.2,0,0.5,0,0.3,0.3c0,0.1,0.1,0.1,0.1,0.1c0.2,0,0.4,0,0.6,0c0.2,0,0.3,0,0.5,0
			c0.1,0,0.2,0,0.2-0.1c0-0.1-0.1-0.1-0.1-0.2c-0.5-0.3-1.1-0.6-1.6-1c-0.5-0.3-1.1-0.5-1.8-0.5C22.7,68.8,22.6,68.8,22.5,68.8"/>
	</defs>
	<clipPath id="SVGID_120_">
		<use xlink:href="#SVGID_119_"  overflow="visible"/>
	</clipPath>
	
		<linearGradient id="SVGID_121_" gradientUnits="userSpaceOnUse" x1="-733.6742" y1="526.8771" x2="-733.4833" y2="526.8771" gradientTransform="matrix(25.427 0 0 -25.427 18676.5566 13466.5596)">
		<stop  offset="0" style="stop-color:#FFFFFF"/>
		<stop  offset="0.607" style="stop-color:#00BFED"/>
		<stop  offset="1" style="stop-color:#244298"/>
	</linearGradient>
	<rect x="21.4" y="68.7" clip-path="url(#SVGID_120_)" fill="url(#SVGID_121_)" width="4.9" height="1.9"/>
</g>
<g>
	<defs>
		<path id="SVGID_122_" d="M19.7,39.3c-0.2,0.1-0.5,0.1-0.7,0.1c-0.2,0-0.5,0-0.4,0.3c0.2,0.6-0.1,0.3-0.4,0.3
			c-0.1,0-0.3-0.1-0.4,0.1c0,0.2,0.2,0.3,0.3,0.3c0.3,0,0.5,0.2,0.7,0.4c0.1,0.2,0.3,0.2,0.5,0.1c0.2-0.1,0.4-0.1,0.6-0.2
			c0.3,0,0.4-0.2,0.5-0.5c0-0.2-0.1-0.2-0.2-0.2c-0.1,0-0.2,0-0.2,0c0,0,0,0-0.1,0c0.1-0.2,0.4-0.1,0.3-0.4
			c-0.1-0.1-0.2-0.2-0.3-0.2C19.9,39.2,19.8,39.2,19.7,39.3"/>
	</defs>
	<clipPath id="SVGID_123_">
		<use xlink:href="#SVGID_122_"  overflow="visible"/>
	</clipPath>
	
		<linearGradient id="SVGID_124_" gradientUnits="userSpaceOnUse" x1="-716.1869" y1="517.3956" x2="-715.996" y2="517.3956" gradientTransform="matrix(13.4331 0 0 -13.4331 9638.4736 6990.2188)">
		<stop  offset="0" style="stop-color:#FFFFFF"/>
		<stop  offset="0.607" style="stop-color:#00BFED"/>
		<stop  offset="1" style="stop-color:#244298"/>
	</linearGradient>
	<rect x="17.8" y="39.2" clip-path="url(#SVGID_123_)" fill="url(#SVGID_124_)" width="2.6" height="1.6"/>
</g>
<g>
	<defs>
		<path id="SVGID_125_" d="M23.9,44.1c-0.2,0.3-0.2,0.7-0.6,1c0.2,0,0.3,0,0.3,0c0.3,0.5,0.6,0.1,0.9,0c0.3-0.2,0.5-0.2,0.8,0
			c0.2,0.1,0.4,0.1,0.6,0.1c0.1,0,0.2,0,0.1-0.1c0,0-0.1-0.1-0.1-0.1c-0.3-0.1-0.5-0.4-0.8-0.5c-0.3-0.1-0.6-0.2-0.8-0.4
			c-0.1-0.1-0.2-0.1-0.2-0.1C24.1,43.9,24,44,23.9,44.1"/>
	</defs>
	<clipPath id="SVGID_126_">
		<use xlink:href="#SVGID_125_"  overflow="visible"/>
	</clipPath>
	
		<linearGradient id="SVGID_127_" gradientUnits="userSpaceOnUse" x1="-720.5937" y1="519.496" x2="-720.4028" y2="519.496" gradientTransform="matrix(14.5819 0 0 -14.5819 10530.9307 7619.9536)">
		<stop  offset="0" style="stop-color:#FFFFFF"/>
		<stop  offset="0.607" style="stop-color:#00BFED"/>
		<stop  offset="1" style="stop-color:#244298"/>
	</linearGradient>
	<rect x="23.3" y="43.9" clip-path="url(#SVGID_126_)" fill="url(#SVGID_127_)" width="2.8" height="1.7"/>
</g>
<g>
	<defs>
		<path id="SVGID_128_" d="M20.2,37.8c-0.2,0-0.4,0-0.5,0c-0.3,0-0.6,0.1-0.8,0.2c-0.2,0.1-0.3,0.1-0.5,0c-0.1-0.1-0.2-0.1-0.3-0.1
			c-0.1,0-0.2,0-0.3,0.1c-0.1,0.1,0,0.2,0.1,0.3c0.3,0.1,0.6,0.3,1,0.2c0.1,0,0.3-0.1,0.3,0.1c0,0.3,0.2,0.2,0.3,0.3
			c0.4,0,0.7-0.1,1-0.4c0.1-0.1,0.2-0.3,0.1-0.4c-0.1-0.1-0.1-0.1-0.2-0.1C20.3,37.7,20.2,37.7,20.2,37.8"/>
	</defs>
	<clipPath id="SVGID_129_">
		<use xlink:href="#SVGID_128_"  overflow="visible"/>
	</clipPath>
	
		<linearGradient id="SVGID_130_" gradientUnits="userSpaceOnUse" x1="-719.1747" y1="517.688" x2="-718.9838" y2="517.688" gradientTransform="matrix(14.6651 0 0 -14.6651 10564.5977 7630.1978)">
		<stop  offset="0" style="stop-color:#FFFFFF"/>
		<stop  offset="0.607" style="stop-color:#00BFED"/>
		<stop  offset="1" style="stop-color:#244298"/>
	</linearGradient>
	<rect x="17.8" y="37.7" clip-path="url(#SVGID_129_)" fill="url(#SVGID_130_)" width="2.9" height="1"/>
</g>
<g>
	<defs>
		<path id="SVGID_131_" d="M27.7,70.7c-0.1,0.1-0.3,0.1-0.5,0c-0.2-0.1-0.3,0-0.2,0.3c0.1,0.2,0.3,0.4-0.1,0.6c0.3,0,0.4,0,0.6,0.2
			c0.1,0.1,0.2,0.1,0.3,0c0.3-0.2,0.7-0.3,1-0.2c0.1,0,0.2,0,0.3-0.1c0.1-0.1,0-0.2-0.2-0.2c-0.2-0.1-0.4-0.2-0.6-0.4
			c-0.1-0.1-0.3-0.2-0.5-0.2C27.9,70.6,27.8,70.6,27.7,70.7"/>
	</defs>
	<clipPath id="SVGID_132_">
		<use xlink:href="#SVGID_131_"  overflow="visible"/>
	</clipPath>
	
		<linearGradient id="SVGID_133_" gradientUnits="userSpaceOnUse" x1="-714.2869" y1="527.2797" x2="-714.096" y2="527.2797" gradientTransform="matrix(11.7343 0 0 -11.7343 8408.6357 6258.4741)">
		<stop  offset="0" style="stop-color:#FFFFFF"/>
		<stop  offset="0.607" style="stop-color:#00BFED"/>
		<stop  offset="1" style="stop-color:#244298"/>
	</linearGradient>
	<rect x="26.9" y="70.6" clip-path="url(#SVGID_132_)" fill="url(#SVGID_133_)" width="2.3" height="1.2"/>
</g>
<g>
	<defs>
		<path id="SVGID_134_" d="M18,36.4c0.4,0.1,0.6,0.3,0.9,0.4c0.3,0,0.6,0.2,0.9,0.3c0.1,0.1,0.4,0.1,0.4-0.1c0-0.2-0.1-0.3-0.3-0.4
			c-0.4-0.1-0.8-0.2-1.3-0.3c-0.1,0-0.1,0-0.2,0C18.3,36.2,18.2,36.2,18,36.4"/>
	</defs>
	<clipPath id="SVGID_135_">
		<use xlink:href="#SVGID_134_"  overflow="visible"/>
	</clipPath>
	
		<linearGradient id="SVGID_136_" gradientUnits="userSpaceOnUse" x1="-710.9295" y1="514.7598" x2="-710.7386" y2="514.7598" gradientTransform="matrix(11.7016 0 0 -11.7016 8337.0127 6060.1602)">
		<stop  offset="0" style="stop-color:#FFFFFF"/>
		<stop  offset="0.607" style="stop-color:#00BFED"/>
		<stop  offset="1" style="stop-color:#244298"/>
	</linearGradient>
	<rect x="18" y="36.2" clip-path="url(#SVGID_135_)" fill="url(#SVGID_136_)" width="2.3" height="0.9"/>
</g>
<g>
	<defs>
		<rect id="SVGID_137_" x="-29.5" y="-4.5" width="316.4" height="158.2"/>
	</defs>
	<clipPath id="SVGID_138_">
		<use xlink:href="#SVGID_137_"  overflow="visible"/>
	</clipPath>
	<polygon clip-path="url(#SVGID_138_)" fill="none" stroke="#244298" stroke-width="3" stroke-miterlimit="10" points="9,119.4 
		23.3,12.3 53.2,12.3 42.4,96.9 61.2,96.9 57.5,118.7 	"/>
	<path clip-path="url(#SVGID_138_)" fill="none" stroke="#244298" stroke-width="3" stroke-miterlimit="10" d="M152.8,119.2
		l15.4-107.9h26.5l10,48.4c0,0,7.2-49.1,7.2-48.4c0,0.7,25.9,0,25.9,0l-15.7,107.4h-27.6l-8.7-49l-6.7,49.7L152.8,119.2z"/>
</g>
</svg>
